<?xml version="1.0" encoding="UTF-8"?>
<svg version="1.1" xmlns="http://www.w3.org/2000/svg" width="384" height="232">
<path d="M0 0 C2.02886066 1.44696946 3.87509061 2.98233782 5.73046875 4.64453125 C6.33503906 5.14597656 6.93960938 5.64742187 7.5625 6.1640625 C15.79434742 13.53506313 19.4656284 23.39448207 20.60546875 34.19921875 C21.01788159 45.56634774 17.63495978 55.58156561 10.46484375 64.4453125 C2.61622467 72.77521482 -6.52358824 77.95919061 -18.06640625 78.98046875 C-31.61273611 79.11432576 -42.25820065 76.0618934 -52.4296875 66.64453125 C-61.85690986 56.77678448 -64.78956495 46.03925616 -64.546875 32.76171875 C-64.0317557 21.58286108 -58.009895 11.96847252 -50.08203125 4.39453125 C-36.26993534 -7.33404511 -15.65956614 -9.35261523 0 0 Z " fill="#3D93C2" transform="translate(80.26953125,79.35546875)"/>
<path d="M0 0 C3.77563025 1.60665117 5.90500635 3.49398708 8 7 C8.34057617 10.20800781 8.34057617 10.20800781 8.29296875 13.953125 C8.28872391 14.61334656 8.28447906 15.27356812 8.28010559 15.95379639 C8.26337435 18.05295391 8.22573551 20.15113496 8.1875 22.25 C8.17244584 23.67706942 8.15875871 25.10415396 8.14648438 26.53125 C8.11349001 30.02114817 8.06174743 33.5104787 8 37 C0.24343886 35.99913525 0.24343886 35.99913525 -2.8125 33.6875 C-3.37582031 33.27886719 -3.93914063 32.87023437 -4.51953125 32.44921875 C-7.474634 29.55649284 -8.24364803 26.60711432 -8.34375 22.55859375 C-8.38822266 21.31239258 -8.38822266 21.31239258 -8.43359375 20.04101562 C-8.47796415 18.30143483 -8.52223454 16.56185148 -8.56640625 14.82226562 C-8.61087891 13.57799805 -8.61087891 13.57799805 -8.65625 12.30859375 C-8.67494141 11.55376709 -8.69363281 10.79894043 -8.71289062 10.02124023 C-8.89577128 7.68815627 -8.89577128 7.68815627 -11 5 C-11.99 4.34 -12.98 3.68 -14 3 C-9.57846736 -0.85990609 -5.64078432 -0.67762669 0 0 Z " fill="#FCFDFE" transform="translate(59,108)"/>
<path d="M0 0 C5.14495636 2.82624295 8.15916781 6.66361503 9.8125 12.3125 C9.8125 14.2925 9.8125 16.2725 9.8125 18.3125 C-0.0875 18.3125 -9.9875 18.3125 -20.1875 18.3125 C-17.2838431 25.33551622 -17.2838431 25.33551622 -12.1875 29.3125 C-8.78971321 29.97548279 -5.59176742 29.93799954 -2.1875 29.3125 C0.66804017 26.87522118 0.66804017 26.87522118 2.8125 24.3125 C5.125 24.5 5.125 24.5 6.8125 25.3125 C6.47282174 28.48283042 5.81380809 29.31132607 3.375 31.5 C-1.8667264 35.20756258 -6.90137086 34.90491008 -13.1875 34.3125 C-18.8357917 31.5892165 -22.19823244 27.80922289 -24.5 22 C-25.55776326 16.32654254 -25.14260701 11.73714469 -22.5 6.5625 C-17.01721347 -1.14303782 -8.75806502 -4.05223904 0 0 Z M-17.1875 6.3125 C-18.1775 8.9525 -19.1675 11.5925 -20.1875 14.3125 C-11.9375 14.3125 -3.6875 14.3125 4.8125 14.3125 C3.81804781 9.34023904 3.21747708 7.81205977 -0.1875 4.3125 C-6.70563858 0.80273307 -11.32020013 1.96635195 -17.1875 6.3125 Z " fill="#333333" transform="translate(211.1875,104.6875)"/>
<path d="M0 0 C4.20328938 2.77238235 7.66979118 6.40208236 9.9375 10.9375 C10.62661981 18.38225339 10.57146217 23.9258734 5.9375 29.9375 C0.78746692 34.59705374 -2.41698467 35.29515332 -9.234375 35.21484375 C-13.57026137 34.78963942 -15.60871811 33.6159431 -19.0625 30.9375 C-23.58785055 25.10217956 -24.90614885 20.17881932 -24.0625 12.9375 C-22.00475621 6.5629676 -18.626525 2.81330263 -12.6875 -0.3125 C-8.14352214 -1.61077939 -4.46675524 -1.54969059 0 0 Z M-15.0625 5.9375 C-18.638638 10.5222923 -19.67804916 14.06680156 -19.3828125 19.86328125 C-18.73764365 24.04114292 -16.70319935 26.26018926 -13.875 29.25 C-10.21990349 31.44305791 -7.16821912 31.71034125 -3.0625 30.9375 C1.05020115 29.07514476 3.11475969 27.20844036 4.875 23.125 C6.55594033 17.7319831 5.83065734 13.72381467 3.3125 8.6875 C0.33185749 5.23622973 -1.77302969 4.36732344 -6.0625 2.9375 C-9.43960528 2.9375 -12.25007832 4.17738755 -15.0625 5.9375 Z " fill="#333333" transform="translate(358.0625,104.0625)"/>
<path d="M0 0 C4.50693678 2.48448159 6.86850637 5.37956067 9.125 10 C10.36499821 15.97453685 9.87848147 21.25667859 7.0625 26.6875 C3.85705375 30.42718729 0.50590089 34.04404011 -4.578125 34.55078125 C-10.66866678 34.70886908 -14.4615193 34.57740941 -19.1875 30.3125 C-22.89142578 26.40280057 -25.07434788 22.69449112 -25.2578125 17.2109375 C-24.91441654 11.3328067 -23.18646172 6.68667294 -19.1875 2.3125 C-13.13168646 -2.19444718 -6.9600037 -3.15194252 0 0 Z M-15.1875 5.3125 C-18.63989166 8.94659648 -20.05744703 11.58929818 -20.4375 16.625 C-20.15834473 20.74254024 -19.4705626 22.8879061 -17.1875 26.3125 C-13.95760591 29.10195399 -11.9211682 30.20769026 -7.6875 30.8125 C-3.4538318 30.20769026 -1.41739409 29.10195399 1.8125 26.3125 C4.85940171 21.84371083 5.77255836 17.59809605 4.8125 12.3125 C2.27272065 7.50506052 -0.39343154 4.36971509 -5.5 2.4375 C-9.40146137 2.25603668 -11.78422601 3.45616874 -15.1875 5.3125 Z " fill="#333333" transform="translate(290.1875,104.6875)"/>
<path d="M0 0 C3.42260857 3.25147814 4.92200429 6.06319049 5.11352539 10.8190918 C5.10828857 11.93453369 5.10305176 13.04997559 5.09765625 14.19921875 C5.09443359 15.40771484 5.09121094 16.61621094 5.08789062 17.86132812 C5.07951172 19.12396484 5.07113281 20.38660156 5.0625 21.6875 C5.05798828 22.96173828 5.05347656 24.23597656 5.04882812 25.54882812 C5.03702873 28.69926564 5.02056597 31.84960949 5 35 C3.35 35 1.7 35 0 35 C-0.01981934 34.19780029 -0.03963867 33.39560059 -0.06005859 32.5690918 C-0.15519495 28.94155823 -0.2649208 25.31460955 -0.375 21.6875 C-0.4059375 20.42486328 -0.436875 19.16222656 -0.46875 17.86132812 C-0.50742188 16.65283203 -0.54609375 15.44433594 -0.5859375 14.19921875 C-0.6173584 13.08377686 -0.6487793 11.96833496 -0.68115234 10.8190918 C-0.805249 7.79631214 -0.805249 7.79631214 -3 5 C-8.33078472 4.47566052 -11.66671976 4.55886569 -16 8 C-18.22535794 11.33803691 -18.28978404 12.62819711 -18.4140625 16.54296875 C-18.45273438 17.61611328 -18.49140625 18.68925781 -18.53125 19.79492188 C-18.5621875 20.91447266 -18.593125 22.03402344 -18.625 23.1875 C-18.66367188 24.31865234 -18.70234375 25.44980469 -18.7421875 26.61523438 C-18.83652533 29.4099925 -18.92211652 32.20474278 -19 35 C-20.65 35 -22.3 35 -24 35 C-24 23.45 -24 11.9 -24 0 C-22.35 0 -20.7 0 -19 0 C-18.67 1.32 -18.34 2.64 -18 4 C-17.071875 3.360625 -16.14375 2.72125 -15.1875 2.0625 C-9.991403 -1.29968041 -5.89934051 -1.57884701 0 0 Z " fill="#333333" transform="translate(157,104)"/>
<path d="M0 0 C0.66 0.33 1.32 0.66 2 1 C1.67 2.32 1.34 3.64 1 5 C-1.97 5 -4.94 5 -8 5 C-8.99 7.97 -9.98 10.94 -11 14 C-7.7 14 -4.4 14 -1 14 C-1 15.32 -1 16.64 -1 18 C-4.3 18 -7.6 18 -11 18 C-11 28.23 -11 38.46 -11 49 C-12.65 48.67 -14.3 48.34 -16 48 C-16 38.43 -16 28.86 -16 19 C-17.32 18.67 -18.64 18.34 -20 18 C-20 16.68 -20 15.36 -20 14 C-18.35 14 -16.7 14 -15 14 C-15.103125 12.80375 -15.20625 11.6075 -15.3125 10.375 C-15.27844961 6.54773629 -14.48886597 3.95033586 -11.76953125 1.05859375 C-8.18816833 -1.0838993 -4.00652595 -0.56020451 0 0 Z " fill="#333333" transform="translate(267,90)"/>
<path d="M0 0 C1.65 0 3.3 0 5 0 C5 3.96 5 7.92 5 12 C7.64 12 10.28 12 13 12 C13 13.32 13 14.64 13 16 C10.36 16 7.72 16 5 16 C5 24.58 5 33.16 5 42 C10.57836298 42.31622777 10.57836298 42.31622777 14 41 C14.33 42.32 14.66 43.64 15 45 C11.78563471 47.14291019 9.82573391 47.30025791 6.03515625 47.4609375 C3.02185276 46.77846185 1.91736773 45.3898628 0 43 C-0.45410156 40.06738281 -0.45410156 40.06738281 -0.390625 36.703125 C-0.37773437 35.49785156 -0.36484375 34.29257813 -0.3515625 33.05078125 C-0.31804687 31.79652344 -0.28453125 30.54226562 -0.25 29.25 C-0.23195312 27.98027344 -0.21390625 26.71054688 -0.1953125 25.40234375 C-0.14817153 22.26746923 -0.08237664 19.1341144 0 16 C-1.65 16 -3.3 16 -5 16 C-5 14.68 -5 13.36 -5 12 C-3.35 12 -1.7 12 0 12 C0 8.04 0 4.08 0 0 Z " fill="#333333" transform="translate(170,92)"/>
<path d="M0 0 C1.65 0 3.3 0 5 0 C5.33 14.52 5.66 29.04 6 44 C7.98 44 9.96 44 12 44 C12.33 45.32 12.66 46.64 13 48 C9.90826248 49.54586876 7.40570448 49.29359521 4 49 C1.79785156 47.62011719 1.79785156 47.62011719 0 45 C-0.55744549 41.58577025 -0.46456157 38.21683975 -0.390625 34.765625 C-0.38496521 33.77246277 -0.37930542 32.77930054 -0.37347412 31.75604248 C-0.35110026 28.58686941 -0.30090106 25.4188308 -0.25 22.25 C-0.22993635 20.10027676 -0.21168534 17.95053577 -0.1953125 15.80078125 C-0.15123239 10.53346771 -0.08431033 5.26681491 0 0 Z " fill="#333333" transform="translate(305,90)"/>
<path d="M0 0 C1.65 0 3.3 0 5 0 C5.33 1.32 5.66 2.64 6 4 C6.86625 3.34 7.7325 2.68 8.625 2 C12.21423463 -0.12695385 13.92694798 -0.38790972 18 0 C18 1.32 18 2.64 18 4 C17.45730469 4.18175781 16.91460937 4.36351563 16.35546875 4.55078125 C15.64003906 4.80214844 14.92460937 5.05351563 14.1875 5.3125 C13.47980469 5.55613281 12.77210938 5.79976563 12.04296875 6.05078125 C9.07338791 7.43052914 7.4568452 9.08630961 6 12 C5.84733388 13.73868744 5.75067404 15.48247501 5.68359375 17.2265625 C5.64169922 18.2578125 5.59980469 19.2890625 5.55664062 20.3515625 C5.49766602 21.97191406 5.49766602 21.97191406 5.4375 23.625 C5.39431641 24.71296875 5.35113281 25.8009375 5.30664062 26.921875 C5.2003547 29.6144517 5.09831943 32.30712253 5 35 C3.35 35 1.7 35 0 35 C0 23.45 0 11.9 0 0 Z " fill="#333333" transform="translate(225,104)"/>
<path d="M0 0 C3.71317907 1.14770989 5.2692056 1.85342428 7.4375 5.0625 C8 8 8 8 7.4375 11.0625 C4.80538535 14.73150829 3.34895674 15.90259531 -1.125 16.6875 C-4.5625 16.0625 -4.5625 16.0625 -7 13.9375 C-8.85305839 10.52787255 -9.27838388 8.88054737 -8.5625 5.0625 C-5.88937913 1.25532785 -4.71546409 0.08272744 0 0 Z " fill="#F7FAFC" transform="translate(58.5625,85.9375)"/>
<path d="M0 0 C1.65 0 3.3 0 5 0 C5 11.55 5 23.1 5 35 C3.35 35 1.7 35 0 35 C0 23.45 0 11.9 0 0 Z " fill="#333333" transform="translate(323,104)"/>
<path d="M0 0 C1.32 0 2.64 0 4 0 C4 11.55 4 23.1 4 35 C2.68 35 1.36 35 0 35 C0 23.45 0 11.9 0 0 Z " fill="#333333" transform="translate(120,104)"/>
<path d="M0 0 C1.65 0 3.3 0 5 0 C5 2.31 5 4.62 5 7 C3.35 7.33 1.7 7.66 0 8 C0 5.36 0 2.72 0 0 Z " fill="#333333" transform="translate(323,90)"/>
<path d="M0 0 C1.32 0 2.64 0 4 0 C4 2.64 4 5.28 4 8 C2.68 8 1.36 8 0 8 C0 5.36 0 2.72 0 0 Z " fill="#333333" transform="translate(120,90)"/>
</svg>
