<svg width="800" height="148" viewBox="0 0 800 148" fill="none" xmlns="http://www.w3.org/2000/svg">
<path d="M755.528 -3.33539e-05C753.326 -3.33539e-05 746.783 0.000181288 739.177 12.9959C739.275 13.1601 739.373 13.3242 739.475 13.4937C741.428 10.2791 743.877 6.99054 746.508 4.59688C748.939 2.39386 751.757 0.921518 754.09 0.561409C755.791 0.296623 761.417 0.397211 767.822 0.397211C767.856 0.397211 767.874 0.418246 767.89 0.444725L767.724 0.0529756C767.713 0.0159055 767.69 -3.33539e-05 767.664 -3.33539e-05H755.528Z" fill="url(#paint0_radial_1_3)"/>
<path d="M710.924 0.000432107C710.901 0.000432107 710.875 0.0111994 710.86 0.0482694L687.04 58.1105L679.57 76.3171L678.704 78.4301L678.591 78.7003C678.584 78.7215 678.584 78.7584 678.599 78.8008L701.29 134.109V133.882C700.797 132.611 700.444 131.631 700.256 131.017C699.307 127.993 698.769 123.809 698.908 119.742C699.292 109.034 703.338 98.4692 705.373 93.5124C710.145 81.883 719.368 59.3921 719.368 59.3921C719.368 59.3921 728.596 36.901 733.367 25.2663C735.399 20.3148 739.881 10.0993 746.282 4.27929C748.709 2.07097 751.562 0.641424 753.887 0.281315C755.592 0.011233 761.251 0.000432107 767.664 0.000432107H710.924Z" fill="url(#paint1_radial_1_3)"/>
<path d="M678.787 79.2403C679.144 80.1194 679.498 80.9878 679.848 81.8351L678.787 79.2403ZM792.929 95.4452C791.541 98.1036 789.238 100.863 786.664 102.716C779.879 107.604 771.359 107.959 767.295 107.959H739.294H711.296C707.232 107.959 698.701 107.604 691.928 102.716C689.35 100.863 687.047 98.1036 685.658 95.4452C684.778 93.7559 682.52 88.3436 679.848 81.8351L685.542 95.7206L706.969 147.952C706.98 147.979 707.006 148 707.029 148H771.562C771.581 148 771.607 147.973 771.619 147.947L799.737 79.4152C796.636 86.9721 793.919 93.5546 792.929 95.4452Z" fill="url(#paint2_radial_1_3)"/>
<path d="M753.887 0.281114C751.562 0.641223 748.709 2.07077 746.282 4.27909C743.603 6.71512 741.262 9.91907 739.294 13.1865C742.029 17.725 744.039 22.3799 745.221 25.2661C749.992 36.9008 759.223 59.3919 759.223 59.3919C759.223 59.3919 768.447 81.8828 773.222 93.5122C775.25 98.469 779.299 109.034 779.676 119.742C779.819 123.809 779.273 127.993 778.336 131.016C777.677 133.129 775.062 139.553 772.025 146.957L799.996 78.7848C799.996 78.7848 800 78.774 800 78.7634V78.7211C800 78.7105 799.992 78.6946 799.992 78.6946L767.724 0.0532397C767.713 0.0161697 767.69 0.000230789 767.664 0.000230789C761.251 0.000230789 755.592 0.0110317 753.887 0.281114Z" fill="url(#paint3_radial_1_3)"/>
<path d="M28.6936 40.3062C12.7305 40.3062 0 58.7989 0 82.01C3.01048e-05 106.27 12.5123 123.052 27.941 123.052C36.773 123.052 43.6143 118.598 48.8262 110.21L41.1118 99.0887C37.9207 103.881 33.9055 106.503 28.6936 106.503C19.6509 106.503 13.5471 95.8425 13.5471 81.6129C13.5471 67.8387 19.7826 56.8553 28.5054 56.8553C33.0852 56.8554 36.9762 59.2649 40.171 63.6074L48.1676 51.9568C43.4826 44.7705 36.5698 40.3062 28.6936 40.3062ZM82.7881 40.3062C65.8692 40.3062 53.1537 58.9472 53.1537 82.01C53.1537 105.375 65.173 123.052 82.4118 123.052C99.3307 123.052 112.046 104.416 112.046 81.3481C112.046 57.9886 100.023 40.3062 82.7881 40.3062ZM125.781 41.6301L120.231 121.596H131.991L134.625 78.4354C135.155 70.047 135.189 61.3567 135.189 61.3567H135.471C135.471 61.3567 136.781 70.1 138.482 78.0382L148.078 121.596H159.273L168.869 77.6411C170.57 70.0046 171.879 61.3567 171.879 61.3567H172.067C172.067 61.3567 172.195 70.0099 172.726 78.7002L175.266 121.596H187.778L182.228 41.6301H165.764L157.109 81.2157C155.728 87.6659 154.287 95.9113 154.287 95.9113C154.287 95.9113 152.77 87.6765 151.276 81.0833L142.527 41.6301H125.781ZM204.995 41.6301L199.538 121.596H211.298L213.838 78.4354C214.368 70.047 214.496 61.3567 214.496 61.3567H214.685C214.685 61.3567 216.088 70.1 217.789 78.0382L227.385 121.596H238.58L248.082 77.6411C249.787 70.0046 251.092 61.3567 251.092 61.3567H251.281C251.281 61.3567 251.409 70.0099 251.939 78.7002L254.479 121.596H267.086L261.535 41.6301H245.072L236.416 81.2157C235.032 87.6659 233.594 95.9113 233.594 95.9113C233.594 95.9113 232.074 87.6765 230.584 81.0833L221.834 41.6301H204.995ZM280.633 41.6301V121.596H317.605V106.238H293.051V88.7621H313.842V73.8017H293.051V56.8553H317.229V41.6301H280.633ZM332.187 41.6301V121.596H344.605V92.4691H348.463L360.599 121.596H375.369L361.351 89.424C368.693 85.5317 372.829 77.514 372.829 67.182C372.829 51.0089 366.349 41.6301 349.215 41.6301H332.187ZM383.177 41.6301V56.8553H406.132L382.613 108.356V121.596H422.219V106.238H398.135L421.655 54.7371V41.6301H383.177ZM435.014 41.6301V121.596H456.746C466.857 121.596 478.101 115.177 478.101 98.5592C478.101 88.2272 473.412 81.2316 465.965 79.8917V79.7594C471.817 77.2068 475.467 70.9843 475.467 62.1511C475.467 44.7758 464.58 41.6301 454.676 41.6301H435.014ZM502.467 41.6301L482.241 121.596H494.659L498.61 105.311H520.718L524.669 121.596H538.028L517.802 41.6301H502.467ZM545.743 41.6301V121.596H557.22V83.5987C557.22 76.4072 556.844 69.0355 556.844 69.0355C556.844 69.0355 559.512 75.4592 562.489 81.7452L581.774 121.596H592.781V41.6301H581.21V77.9058C581.21 85.0974 581.586 92.3367 581.586 92.3367C581.586 92.3367 578.926 85.9183 575.942 79.627L557.502 41.6301H545.743ZM606.423 41.6301V121.596H618.747V84.1283L636.904 121.596H652.144L631.259 78.7002L650.169 41.6301H635.869L618.747 77.5087V41.6301H606.423ZM82.5999 56.5906C92.3877 56.5906 98.6872 67.5209 98.6872 81.7452C98.6872 95.2229 92.5985 106.768 82.5999 106.768C72.8084 106.768 66.5127 95.8425 66.5127 81.6129C66.5127 68.1352 72.5976 56.5906 82.5999 56.5906ZM344.605 56.5906H349.686C356.282 56.5906 360.128 59.3973 360.128 67.182C360.128 74.6702 356.602 77.9058 349.686 77.9058H344.605V56.5906ZM447.338 56.5906H454.488C458.424 56.5906 462.39 58.3382 462.39 64.9313C462.39 71.3656 458.996 73.9341 455.052 73.9341H447.338V56.5906ZM509.711 57.7821C509.711 57.7821 510.769 63.1943 512.157 69.0355L517.143 90.2184H502.279L507.265 69.1679C508.65 63.1784 509.711 57.7821 509.711 57.7821ZM447.338 88.6297H456.463C461.991 88.6297 465.589 91.0763 465.589 97.3676C465.589 103.511 462.74 106.635 456.463 106.635H447.338V88.6297Z" fill="black"/>
<defs>
<radialGradient id="paint0_radial_1_3" cx="0" cy="0" r="1" gradientUnits="userSpaceOnUse" gradientTransform="translate(778.335 131.013) scale(93.7069 131.874)">
<stop stop-color="#FEDF33"/>
<stop offset="0.440002" stop-color="#FBB809"/>
<stop offset="0.899994" stop-color="#EE960D"/>
<stop offset="1" stop-color="#E17A10"/>
</radialGradient>
<radialGradient id="paint1_radial_1_3" cx="0" cy="0" r="1" gradientUnits="userSpaceOnUse" gradientTransform="translate(753.866 -0.00270343) scale(93.7763 131.97)">
<stop stop-color="#FEDF33"/>
<stop offset="0.440002" stop-color="#FBB809"/>
<stop offset="0.899994" stop-color="#EE960D"/>
<stop offset="1" stop-color="#E17A10"/>
</radialGradient>
<radialGradient id="paint2_radial_1_3" cx="0" cy="0" r="1" gradientUnits="userSpaceOnUse" gradientTransform="translate(685.54 95.7198) scale(93.7391 131.917)">
<stop stop-color="#FEDF33"/>
<stop offset="0.440002" stop-color="#FBB809"/>
<stop offset="0.899994" stop-color="#EE960D"/>
<stop offset="1" stop-color="#E17A10"/>
</radialGradient>
<radialGradient id="paint3_radial_1_3" cx="0" cy="0" r="1" gradientUnits="userSpaceOnUse" gradientTransform="translate(778.273 131.439) scale(94.0017 132.286)">
<stop stop-color="#FEDF33"/>
<stop offset="0.440002" stop-color="#FBB809"/>
<stop offset="0.899994" stop-color="#EE960D"/>
<stop offset="1" stop-color="#D87301"/>
</radialGradient>
</defs>
</svg>
