<svg width="279" height="378" viewBox="0 0 279 378" fill="none" xmlns="http://www.w3.org/2000/svg">
<path d="M138.489 76.0862C88.0897 76.0862 46.9132 120.938 46.9132 175.836C46.9132 204.542 58.4427 232.17 77.878 250.829C92.372 266.616 91.0541 300.345 90.725 300.704C90.725 302.498 91.0541 303.933 92.372 305.368C93.36 306.445 95.0074 307.162 96.3249 307.162H180.324C181.972 307.162 183.289 306.445 184.277 305.368C185.266 304.292 185.925 302.498 185.925 300.704C185.925 300.345 184.278 266.616 198.772 250.829C199.101 250.47 199.43 250.111 199.76 249.752C218.865 230.735 230.065 203.824 230.065 175.836C230.065 120.938 188.889 76.0862 138.489 76.0862ZM138.16 87.9273C182.63 87.9273 218.536 127.038 218.536 175.478C218.536 200.954 208.654 224.994 191.195 241.5C190.865 241.858 190.207 242.576 190.207 242.935C177.36 258.005 175.054 282.763 174.724 294.604L153.089 294.603L153.089 307.162H142.472L142.471 294.603H131.853L131.855 307.162H121.238L121.236 294.603L101.925 294.604C101.595 282.763 99.2897 256.928 85.4543 241.5C67.9954 224.994 57.7838 200.954 57.7838 175.478C57.7838 127.038 93.6895 87.9273 138.16 87.9273Z" fill="#6F2B90" stroke="#6F2B90" stroke-width="5"/>
<path d="M175.651 338.162H98.674C95.0091 338.162 92.0381 341.316 92.0381 345.204V345.293C92.0381 349.185 95.0091 352.338 98.674 352.338H175.651C179.316 352.338 182.287 349.185 182.287 345.293V345.204C182.287 341.316 179.316 338.162 175.651 338.162Z" fill="#F7931D"/>
<path d="M180.917 318.434H93.4077C89.7191 318.434 86.7291 321.607 86.7291 325.522C86.7291 329.438 89.7191 332.61 93.4077 332.61H180.917C184.606 332.61 187.596 329.438 187.596 325.522C187.596 321.607 184.606 318.434 180.917 318.434Z" fill="#F7931D"/>
<path fill-rule="evenodd" clip-rule="evenodd" d="M168.865 357.887C170.01 358.39 170.058 359.016 169.939 359.303C165.505 370.035 152.752 377.615 137.622 377.615C122.578 377.615 109.813 369.942 105.31 359.303C105.31 358.552 105.619 358.138 106.055 357.883L168.865 357.887Z" fill="#6F2B90"/>
<path d="M165.734 231.036C164.81 229.326 163.011 228.258 161.052 228.258H118.583C116.624 228.258 114.83 229.326 113.901 231.041C112.977 232.75 113.078 234.822 114.167 236.437L123.892 250.893V307.162H134.509V249.299C134.509 248.263 134.196 247.242 133.618 246.38L128.5 238.778H151.136L146.018 246.38C145.44 247.242 145.126 248.263 145.126 249.299V307.162H155.744V250.893L165.469 236.433C166.552 234.823 166.658 232.745 165.734 231.036Z" fill="#6F2B90"/>
<path d="M131.753 115.541H122.922C104.642 115.563 89.8276 131.29 89.8069 150.697V154.637L79.0426 175.347C78.8631 175.693 78.7692 176.083 78.7688 176.478C78.7648 176.612 78.7648 176.745 78.7688 176.878C78.8726 180.651 81.8378 183.62 85.3916 183.51C86.9975 183.605 88.5374 184.217 89.8069 185.265V192.885C89.8021 193.064 89.8021 193.243 89.8069 193.422C89.947 198.452 93.9002 202.408 98.6377 202.26H111.884C112.009 202.264 112.135 202.264 112.26 202.26C115.814 202.15 118.611 199.001 118.507 195.229V181.166H114.091V195.229C114.104 195.368 114.104 195.508 114.091 195.648C113.982 196.826 112.994 197.688 111.884 197.572H98.6377C98.4615 197.584 98.2849 197.584 98.1087 197.572C95.8163 197.417 94.0765 195.318 94.2224 192.885V184.147C94.2224 183.476 93.9516 182.837 93.4783 182.392C91.2642 180.226 88.3994 178.961 85.3916 178.823C85.3818 178.824 85.372 178.825 85.3622 178.826C84.2977 178.946 83.3431 178.127 83.2303 176.997L93.9487 156.372C94.1278 156.024 94.2221 155.635 94.2224 155.239V150.697C94.2406 133.878 107.079 120.248 122.922 120.228H131.726C131.861 120.213 131.996 120.212 132.131 120.226C133.246 120.337 134.066 121.388 133.961 122.572V134.291H138.376V122.572C138.38 122.439 138.38 122.306 138.376 122.173C138.272 118.4 135.306 115.431 131.753 115.541ZM169.283 185.854H144.999V190.541H169.283C169.414 190.527 169.547 190.527 169.678 190.541C170.788 190.657 171.6 191.706 171.491 192.885V197.314C171.173 198.714 169.045 206.948 162.66 206.948C161.441 206.948 160.452 207.997 160.452 209.291V223.354H118.507V216.322H114.091V225.697C114.091 226.992 115.08 228.041 116.299 228.041H162.66C163.879 228.041 164.868 226.992 164.868 225.697V211.429C171.769 210.043 175.059 202.314 175.862 198.041C175.892 197.887 175.907 197.73 175.906 197.573V192.885C175.91 192.752 175.91 192.619 175.906 192.486C175.802 188.712 172.837 185.743 169.283 185.854ZM182.529 143.666H176.964C176.73 142.97 176.462 142.287 176.162 141.62L180.101 137.439C180.963 136.524 180.963 135.04 180.101 134.124L173.855 127.494C172.993 126.579 171.596 126.579 170.733 127.494L166.795 131.675C166.167 131.358 165.523 131.075 164.868 130.827V124.916C164.868 123.621 163.879 122.572 162.66 122.572H153.829C152.61 122.572 151.622 123.621 151.622 124.916V130.827C150.42 131.277 149.262 131.851 148.165 132.54L150.408 136.576C151.649 135.8 152.987 135.212 154.381 134.83C155.356 134.562 156.037 133.63 156.037 132.561V127.26H160.452V132.561C160.451 133.629 161.13 134.563 162.104 134.832C163.499 135.215 164.836 135.803 166.078 136.578C166.945 137.123 168.05 136.974 168.762 136.218L172.294 132.467L175.418 135.777L171.886 139.527C171.172 140.282 171.032 141.455 171.544 142.377C172.276 143.694 172.831 145.115 173.193 146.596C173.444 147.63 174.322 148.352 175.328 148.353H180.321V153.039H175.332C174.327 153.04 173.449 153.763 173.197 154.796C172.835 156.278 172.28 157.697 171.548 159.015C171.036 159.937 171.177 161.11 171.89 161.866L175.423 165.615L172.301 168.93L168.769 165.179C168.056 164.423 166.952 164.274 166.084 164.818C164.843 165.594 163.505 166.182 162.11 166.565C161.136 166.832 160.455 167.765 160.454 168.833V174.135H156.039V168.836C156.039 167.767 155.358 166.834 154.383 166.567C152.988 166.184 151.651 165.597 150.409 164.821C149.542 164.277 148.437 164.425 147.725 165.182L144.193 168.931L141.071 165.617L144.604 161.867C145.317 161.112 145.458 159.939 144.946 159.017C144.214 157.699 143.659 156.279 143.297 154.798C143.045 153.765 142.167 153.042 141.162 153.041H133.961V157.728H139.528C139.761 158.424 140.028 159.107 140.327 159.774L136.389 163.956C135.527 164.871 135.527 166.354 136.389 167.269L142.634 173.9C143.496 174.815 144.894 174.815 145.756 173.9L149.694 169.719C150.323 170.036 150.966 170.319 151.622 170.567V176.478C151.622 177.773 152.61 178.822 153.829 178.822H162.66C163.879 178.822 164.868 177.773 164.868 176.478V170.569C165.524 170.322 166.167 170.038 166.795 169.721L170.734 173.9C171.596 174.815 172.993 174.815 173.856 173.9L180.101 167.269C180.963 166.354 180.963 164.871 180.101 163.956L176.16 159.774C176.461 159.107 176.728 158.424 176.962 157.728H182.529C183.749 157.728 184.737 156.679 184.737 155.384V146.01C184.737 144.715 183.749 143.666 182.529 143.666Z" fill="#F7931D"/>
<path d="M158.245 141.322C153.368 141.322 149.414 145.52 149.414 150.698C149.414 155.875 153.367 160.073 158.245 160.073C163.122 160.073 167.075 155.875 167.075 150.698C167.075 145.52 163.122 141.322 158.245 141.322ZM158.245 155.385C155.806 155.385 153.829 153.286 153.829 150.698C153.829 148.109 155.806 146.01 158.245 146.01C160.683 146.01 162.66 148.109 162.66 150.698C162.66 153.286 160.683 155.385 158.245 155.385ZM111.884 153.041V155.385H105.261V153.041H100.845V155.385C100.844 155.45 100.844 155.515 100.845 155.579C100.896 158.115 102.873 160.126 105.261 160.073H111.884C111.945 160.074 112.006 160.074 112.067 160.073C114.455 160.019 116.349 157.92 116.299 155.385V153.041H111.884ZM140.583 181.166C136.926 181.166 133.96 184.314 133.96 188.198C133.96 192.081 136.926 195.229 140.583 195.229C144.241 195.229 147.207 192.081 147.207 188.198C147.207 184.314 144.241 181.166 140.583 181.166ZM140.583 190.541C139.364 190.541 138.376 189.492 138.376 188.198C138.376 186.903 139.364 185.854 140.583 185.854C141.803 185.854 142.791 186.903 142.791 188.198C142.791 189.492 141.803 190.541 140.583 190.541ZM116.299 169.448C112.641 169.448 109.676 172.595 109.676 176.479C109.676 180.362 112.641 183.51 116.299 183.51C119.957 183.51 122.922 180.362 122.922 176.479C122.922 172.595 119.957 169.448 116.299 169.448ZM116.299 178.823C115.08 178.823 114.091 177.773 114.091 176.479C114.091 175.185 115.08 174.135 116.299 174.135C117.518 174.135 118.507 175.185 118.507 176.479C118.507 177.773 117.518 178.823 116.299 178.823ZM136.168 131.947C132.51 131.947 129.545 135.096 129.545 138.978C129.545 142.862 132.51 146.01 136.168 146.01C139.826 146.01 142.791 142.862 142.791 138.978C142.791 135.096 139.826 131.947 136.168 131.947ZM136.168 141.322C134.949 141.322 133.96 140.273 133.96 138.978C133.96 137.684 134.949 136.635 136.168 136.635C137.387 136.635 138.376 137.684 138.376 138.978C138.376 140.273 137.387 141.322 136.168 141.322Z" fill="#6F2B90"/>
<path d="M129.544 153.04H125.13V157.726H129.544V153.04Z" fill="#6F2B90"/>
<path d="M129.544 162.415H125.13V167.102H129.544V162.415Z" fill="#6F2B90"/>
<path d="M118.504 206.948H114.09V211.635H118.504V206.948Z" fill="#6F2B90"/>
<path d="M139.485 56.3601C146.8 56.3601 152.73 50.0513 152.73 42.27V14.0901C152.73 6.30879 146.8 0 139.485 0C132.172 0 126.241 6.30879 126.241 14.0901V42.27C126.241 50.0513 132.172 56.3601 139.485 56.3601ZM68.4203 66.3085C70.7677 70.7045 75.1523 73.4221 79.9057 73.436C84.6522 73.4429 89.05 70.7459 91.4167 66.3634C93.7838 61.9741 93.7641 56.5803 91.3584 52.2184L78.1142 27.8154C75.7668 23.4191 71.3822 20.7015 66.6288 20.6879C61.8757 20.674 57.4845 23.3777 55.1178 27.7605C52.7508 32.1429 52.7704 37.5436 55.1761 41.9056L68.4203 66.3085ZM42.8824 93.4701L19.9442 79.3803C15.8439 76.8276 10.7676 76.8001 6.64796 79.3184C2.52871 81.8364 -0.00654026 86.5148 1.26725e-05 91.5712C0.0131185 96.6279 2.56731 101.286 6.69966 103.783L29.6382 117.873C33.7381 120.432 38.8145 120.46 42.9341 117.942C47.0533 115.424 49.5952 110.746 49.5821 105.689C49.5693 100.632 47.0148 95.9745 42.8824 93.4701ZM272.278 103.783C276.403 101.286 278.966 96.6279 278.973 91.5712C278.984 86.5148 276.45 81.8364 272.322 79.3184C268.204 76.8001 263.133 76.8276 259.034 79.3803L236.089 93.4701C231.963 95.9745 229.402 100.632 229.395 105.689C229.383 110.746 231.918 115.424 236.044 117.942C240.163 120.46 245.233 120.432 249.333 117.873L272.278 103.783ZM192.463 71.4612C198.8 75.3554 206.897 73.0437 210.557 66.3085L223.802 41.9056C226.207 37.5436 226.227 32.1429 223.86 27.7605C221.493 23.3777 217.095 20.674 212.349 20.6879C207.595 20.7015 203.211 23.4191 200.863 27.8154L187.619 52.2184C183.959 58.9539 186.132 67.5744 192.463 71.4612Z" fill="#F7931D"/>
</svg>
