<svg width="1751" height="490" viewBox="0 0 1751 490" fill="none" xmlns="http://www.w3.org/2000/svg">
<path fill-rule="evenodd" clip-rule="evenodd" d="M33.5681 228.911C33.5681 205.04 38.0638 187.793 47.0709 177.193C56.0686 166.592 70.97 160.35 91.7908 158.464L91.5504 122.416C78.722 122.726 67.4889 125.553 57.8637 130.895C48.2385 136.238 39.3563 144.642 31.2234 156.104V126.182H0V385.36H33.5681V228.911ZM422.036 260.409C422.036 217.483 409.792 182.617 385.302 155.807C360.807 128.999 329.156 115.591 290.346 115.591C250.749 115.591 218.23 128.473 192.804 154.23C167.366 179.997 154.656 212.589 154.656 252.014C154.656 289.707 167.644 321.988 193.625 348.849C219.601 375.709 251.373 389.142 288.938 389.142C317.255 389.142 342.184 381.465 363.701 366.114C385.218 350.76 401.927 328.75 413.822 300.073H376.264C367.81 318.065 355.84 332.106 340.342 342.196C324.854 352.283 307.398 357.328 287.995 357.328C260.605 357.328 237.758 348.632 219.444 331.245C201.137 313.851 190.965 291.054 188.93 262.847H422.036V260.409ZM189.866 237.39C193.781 210.752 204.427 189.601 221.795 173.94C239.166 158.282 260.371 150.448 285.41 150.448C312.328 150.448 334.16 157.737 350.91 172.304C367.653 186.872 379.158 208.565 385.418 237.39H189.866ZM514.954 364.751C529.662 380.694 549.15 388.669 573.405 388.669C597.198 388.669 616.841 381.362 632.33 366.753C647.828 352.148 655.573 333.689 655.573 311.388C655.573 293.636 651.774 279.028 644.19 267.559C636.595 256.097 624.74 246.91 608.624 239.994C604.547 238.268 596.53 235.598 584.563 231.985C572.587 228.375 563.47 224.602 557.211 220.673C550.327 216.433 545.391 211.68 542.419 206.416C539.446 201.158 537.96 194.681 537.96 186.979C537.96 176.146 541.56 167.068 548.763 159.767C555.959 152.46 564.956 148.813 575.756 148.813C587.803 148.813 597.313 152.19 604.275 158.943C611.241 165.699 615.115 175.2 615.896 187.452H651.346C650.41 164.994 643.441 147.475 630.457 134.912C617.46 122.347 599.936 116.058 577.869 116.058C557.058 116.058 539.331 123.13 524.701 137.266C510.062 151.404 502.75 168.604 502.75 188.865C502.75 206.773 507.13 221.068 515.897 231.747C524.654 242.429 543.361 252.876 571.997 263.085C589.839 269.681 602.165 276.753 608.971 284.286C615.78 291.828 619.186 301.805 619.186 314.214C619.186 326.623 614.884 336.913 606.273 345.082C597.669 353.251 586.867 357.328 573.876 357.328C560.261 357.328 548.841 352.032 539.602 341.425C530.364 330.825 525.753 317.435 525.753 301.254V300.314H491.717C492.5 327.331 500.243 348.808 514.954 364.751ZM1083.2 388.885H1116.3V45.8271H1083.2V388.885ZM1424.49 129.708H1388.57L1305.23 338.699L1222.6 129.708H1187.62L1288.56 388.885H1318.85L1424.49 129.708ZM1748.64 263.934C1748.64 221.008 1736.39 186.142 1711.89 159.332C1687.4 132.525 1655.75 119.116 1616.94 119.116C1577.34 119.116 1544.83 131.998 1519.4 157.756C1493.96 183.522 1481.25 216.114 1481.25 255.539C1481.25 293.232 1494.24 325.513 1520.22 352.374C1546.19 379.234 1577.96 392.667 1615.53 392.667C1643.86 392.667 1668.78 384.99 1690.3 369.639C1711.82 354.285 1728.52 332.276 1740.42 303.598H1702.86C1694.41 321.59 1682.43 335.632 1666.94 345.721C1651.45 355.808 1633.99 360.853 1614.59 360.853C1587.2 360.853 1564.35 352.158 1546.04 334.77C1527.73 317.376 1517.56 294.58 1515.52 266.372H1748.64V263.934ZM1516.46 237.39C1520.37 210.752 1531.02 189.601 1548.39 173.94C1565.76 158.282 1586.97 150.448 1612.01 150.448C1638.92 150.448 1660.75 157.737 1677.5 172.304C1694.24 186.872 1705.75 208.565 1712.01 237.39H1516.46Z" fill="#FFFFFF"/>
<path d="M874.168 90.2136C806.314 90.2136 750.878 147.549 750.878 217.729C750.878 254.424 766.4 289.743 792.566 313.594C812.08 333.777 810.306 376.893 809.862 377.352C809.862 379.645 810.306 381.48 812.08 383.315C813.41 384.691 815.627 385.608 817.401 385.608H930.491C932.709 385.608 934.483 384.691 935.813 383.315C937.144 381.939 938.031 379.645 938.031 377.352C938.031 376.893 935.813 333.777 955.327 313.594C955.77 313.136 956.214 312.677 956.657 312.218C982.38 287.908 997.458 253.506 997.458 217.729C997.458 147.549 942.022 90.2136 874.168 90.2136ZM873.725 105.35C933.596 105.35 981.936 155.347 981.936 217.27C981.936 249.837 968.632 280.569 945.127 301.668C944.683 302.127 943.796 303.045 943.796 303.503C926.5 322.768 923.396 354.418 922.952 369.554L893.823 369.552L893.824 385.608H879.53L879.527 369.552H865.236L865.236 385.608H850.942L850.941 369.552L824.941 369.554C824.497 354.418 821.393 321.392 802.766 301.668C779.261 280.569 765.513 249.837 765.513 217.27C765.513 155.347 813.853 105.35 873.725 105.35Z" fill="#FFFFFF" stroke="#FFFFFF" stroke-width="5"/>
<path d="M1728.38 437.122H814.887C810.052 437.122 806.132 441.039 806.132 445.872V445.998C806.132 450.83 810.052 454.748 814.887 454.748H1728.38C1733.22 454.748 1737.14 450.83 1737.14 445.998V445.872C1737.14 441.039 1733.22 437.122 1728.38 437.122Z" fill="#FFFFFF"/>
<path d="M1722.24 472.374C1720.6 472.374 1718.97 471.736 1717.7 470.451C1715.06 467.792 1714.96 463.367 1717.46 460.569L1732.19 444.124L1717.48 427.793C1714.96 425.004 1715.06 420.58 1717.68 417.91C1720.31 415.241 1724.48 415.34 1726.99 418.13L1746.05 439.275C1748.48 441.972 1748.49 446.218 1746.07 448.923L1727.01 470.201C1725.71 471.644 1723.98 472.374 1722.24 472.374Z" fill="#FFFFFF"/>
<path d="M26.1002 444.173C27.7306 444.173 29.3621 443.534 30.6369 442.25C33.2719 439.59 33.3769 435.166 30.8725 432.367L16.1411 415.922L30.8574 399.591C33.3712 396.803 33.2788 392.378 30.6508 389.709C28.0216 387.039 23.8544 387.139 21.3406 389.928L2.28277 411.074C-0.146664 413.77 -0.151283 418.017 2.26776 420.722L21.3245 442C22.6212 443.442 24.3566 444.173 26.1002 444.173Z" fill="#FFFFFF"/>
<path d="M933.385 408.922H20.0173C15.1472 408.922 11.1992 412.868 11.1992 417.735C11.1992 422.603 15.1472 426.549 20.0173 426.549H933.385C938.255 426.549 942.203 422.603 942.203 417.735C942.203 412.868 938.255 408.922 933.385 408.922Z" fill="#FFFFFF"/>
<path fill-rule="evenodd" clip-rule="evenodd" d="M922.576 465.327C924.341 465.958 924.414 466.736 924.231 467.095C917.357 480.521 897.586 490 874.131 490C850.808 490 831.018 480.403 824.038 467.095C824.038 466.159 824.515 465.64 825.189 465.322L922.576 465.327Z" fill="#FFFFFF"/>
<path d="M910.848 291.818C909.604 289.633 907.181 288.267 904.545 288.267H847.368C844.73 288.267 842.315 289.632 841.064 291.825C839.821 294.01 839.956 296.659 841.422 298.724L854.515 317.203V389.134H868.81V315.165C868.81 313.84 868.389 312.535 867.609 311.433L860.719 301.716H891.194L884.305 311.433C883.526 312.535 883.103 313.84 883.103 315.165V389.134H897.398V317.203L910.491 298.717C911.949 296.66 912.092 294.003 910.848 291.818Z" fill="#FFFFFF"/>
<path d="M865.1 140.651H853.211C828.6 140.679 808.656 160.784 808.628 185.593V190.63L794.136 217.103C793.894 217.547 793.768 218.045 793.767 218.551C793.762 218.721 793.762 218.891 793.767 219.062C793.907 223.885 797.899 227.68 802.684 227.539C804.845 227.66 806.919 228.443 808.628 229.783V239.523C808.621 239.752 808.621 239.981 808.628 240.211C808.816 246.64 814.139 251.698 820.517 251.508H838.35C838.519 251.513 838.688 251.513 838.857 251.508C843.642 251.367 847.407 247.343 847.267 242.52V224.543H841.323V242.52C841.34 242.698 841.34 242.877 841.323 243.055C841.176 244.562 839.845 245.663 838.35 245.516H820.517C820.28 245.531 820.042 245.531 819.805 245.516C816.718 245.317 814.376 242.635 814.573 239.524V228.354C814.573 227.496 814.208 226.679 813.571 226.11C810.59 223.341 806.733 221.725 802.684 221.547C802.671 221.549 802.657 221.55 802.644 221.552C801.211 221.705 799.926 220.658 799.774 219.213L814.204 192.847C814.445 192.403 814.572 191.906 814.573 191.4V185.593C814.597 164.092 831.882 146.668 853.212 146.644H865.065C865.246 146.624 865.428 146.623 865.609 146.64C867.111 146.783 868.214 148.126 868.073 149.64V164.62H874.017V149.64C874.022 149.47 874.022 149.299 874.017 149.129C873.877 144.306 869.885 140.51 865.1 140.651ZM915.628 230.535H882.934V236.527H915.628C915.805 236.51 915.983 236.51 916.159 236.527C917.654 236.675 918.747 238.017 918.6 239.524V245.186C918.172 246.975 915.307 257.5 906.711 257.5C905.07 257.5 903.739 258.842 903.739 260.497V278.473H847.267V269.485H841.323V281.47C841.323 283.124 842.653 284.466 844.295 284.466H906.712C908.353 284.466 909.684 283.124 909.684 281.47V263.229C918.975 261.458 923.404 251.577 924.485 246.115C924.525 245.918 924.545 245.717 924.545 245.516V239.524C924.55 239.354 924.55 239.183 924.545 239.013C924.405 234.19 920.413 230.394 915.628 230.535ZM933.461 176.605H925.968C925.654 175.715 925.294 174.842 924.89 173.989L930.192 168.644C931.352 167.474 931.352 165.578 930.192 164.408L921.783 155.932C920.623 154.762 918.741 154.762 917.581 155.932L912.278 161.277C911.432 160.871 910.566 160.509 909.684 160.192V152.636C909.684 150.981 908.353 149.64 906.711 149.64H894.823C893.181 149.64 891.85 150.981 891.85 152.636V160.192C890.232 160.768 888.673 161.501 887.196 162.382L890.215 167.541C891.887 166.549 893.688 165.798 895.565 165.309C896.878 164.968 897.794 163.775 897.795 162.409V155.632H903.739V162.409C903.737 163.775 904.651 164.968 905.962 165.312C907.84 165.801 909.641 166.553 911.312 167.545C912.48 168.24 913.967 168.051 914.927 167.083L919.682 162.289L923.888 166.52L919.132 171.314C918.172 172.28 917.982 173.779 918.672 174.957C919.657 176.641 920.405 178.457 920.892 180.35C921.23 181.672 922.412 182.595 923.766 182.597H930.489V188.586H923.772C922.418 188.588 921.236 189.512 920.898 190.834C920.411 192.727 919.663 194.542 918.677 196.227C917.988 197.405 918.177 198.904 919.138 199.87L923.894 204.664L919.691 208.9L914.935 204.107C913.976 203.139 912.489 202.949 911.321 203.645C909.65 204.637 907.849 205.388 905.971 205.877C904.659 206.219 903.742 207.411 903.742 208.777V215.555H897.797V208.781C897.797 207.415 896.88 206.222 895.568 205.88C893.69 205.391 891.89 204.64 890.218 203.648C889.05 202.952 887.563 203.142 886.604 204.11L881.849 208.903L877.646 204.666L882.402 199.872C883.362 198.906 883.552 197.407 882.862 196.229C881.876 194.545 881.129 192.729 880.642 190.836C880.303 189.514 879.122 188.591 877.768 188.589H868.073V194.581H875.568C875.882 195.471 876.241 196.344 876.644 197.197L871.342 202.542C870.182 203.712 870.182 205.608 871.342 206.778L879.75 215.254C880.911 216.424 882.792 216.424 883.953 215.254L889.255 209.909C890.101 210.315 890.967 210.677 891.85 210.994V218.55C891.85 220.205 893.181 221.546 894.823 221.546H906.712C908.353 221.546 909.684 220.205 909.684 218.55V210.997C910.567 210.68 911.433 210.318 912.279 209.912L917.581 215.254C918.741 216.424 920.623 216.424 921.784 215.254L930.192 206.778C931.352 205.608 931.352 203.712 930.192 202.542L924.887 197.197C925.291 196.344 925.651 195.471 925.966 194.581H933.461C935.103 194.581 936.434 193.24 936.434 191.585V179.601C936.434 177.946 935.103 176.605 933.461 176.605Z" fill="#FFFFFF"/>
<path d="M900.767 173.609C894.201 173.609 888.878 178.975 888.878 185.593C888.878 192.212 894.2 197.578 900.767 197.578C907.333 197.578 912.656 192.212 912.656 185.593C912.656 178.975 907.333 173.609 900.767 173.609ZM900.767 191.586C897.484 191.586 894.822 188.903 894.822 185.593C894.822 182.284 897.484 179.601 900.767 179.601C904.05 179.601 906.711 182.284 906.711 185.593C906.711 188.903 904.05 191.586 900.767 191.586ZM838.35 188.589V191.586H829.433V188.589H823.489V191.586C823.487 191.668 823.487 191.751 823.489 191.834C823.557 195.075 826.218 197.646 829.433 197.578H838.35C838.432 197.579 838.514 197.579 838.596 197.578C841.811 197.509 844.362 194.827 844.294 191.586V188.589H838.35ZM876.989 224.543C872.065 224.543 868.072 228.567 868.072 233.531C868.072 238.495 872.065 242.52 876.989 242.52C881.914 242.52 885.906 238.495 885.906 233.531C885.906 228.567 881.914 224.543 876.989 224.543ZM876.989 236.528C875.348 236.528 874.017 235.186 874.017 233.531C874.017 231.877 875.348 230.535 876.989 230.535C878.631 230.535 879.961 231.877 879.961 233.531C879.961 235.186 878.631 236.528 876.989 236.528ZM844.295 209.562C839.37 209.562 835.378 213.587 835.378 218.551C835.378 223.515 839.37 227.539 844.295 227.539C849.219 227.539 853.211 223.515 853.211 218.551C853.211 213.587 849.219 209.562 844.295 209.562ZM844.295 221.547C842.653 221.547 841.322 220.205 841.322 218.551C841.322 216.896 842.653 215.555 844.295 215.555C845.936 215.555 847.267 216.896 847.267 218.551C847.267 220.205 845.936 221.547 844.295 221.547ZM871.045 161.624C866.12 161.624 862.128 165.649 862.128 170.613C862.128 175.577 866.12 179.601 871.045 179.601C875.969 179.601 879.961 175.577 879.961 170.613C879.961 165.649 875.969 161.624 871.045 161.624ZM871.045 173.609C869.403 173.609 868.072 172.267 868.072 170.613C868.072 168.958 869.403 167.616 871.045 167.616C872.686 167.616 874.017 168.958 874.017 170.613C874.017 172.267 872.686 173.609 871.045 173.609Z" fill="#FFFFFF"/>
<path d="M862.126 188.591H856.183V194.583H862.126V188.591Z" fill="#FFFFFF"/>
<path d="M862.126 200.575H856.183V206.567H862.126V200.575Z" fill="#FFFFFF"/>
<path d="M847.267 257.502H841.324V263.494H847.267V257.502Z" fill="#FFFFFF"/>
<path d="M875.51 72.0475C885.357 72.0475 893.341 63.9826 893.341 54.0356V18.0119C893.341 8.06489 885.357 0 875.51 0C865.663 0 857.679 8.06489 857.679 18.0119V54.0356C857.679 63.9826 865.663 72.0475 875.51 72.0475ZM779.834 84.7649C782.994 90.3848 788.897 93.8587 795.296 93.8763C801.687 93.8851 807.607 90.4375 810.794 84.8352C813.981 79.2241 813.954 72.3289 810.716 66.753L792.885 35.5576C789.724 29.9377 783.821 26.4637 777.422 26.4461C771.023 26.4286 765.111 29.8849 761.924 35.4873C758.738 41.0896 758.764 47.9935 762.003 53.5695L779.834 84.7649ZM745.451 119.487L714.569 101.475C709.049 98.2122 702.215 98.177 696.669 101.396C691.123 104.615 687.71 110.595 687.718 117.06C687.736 123.524 691.175 129.478 696.738 132.67L727.62 150.682C733.14 153.954 739.975 153.989 745.521 150.77C751.067 147.551 754.489 141.571 754.471 135.107C754.454 128.642 751.015 122.688 745.451 119.487ZM1054.29 132.67C1059.84 129.478 1063.29 123.524 1063.3 117.06C1063.32 110.595 1059.91 104.615 1054.35 101.396C1048.8 98.177 1041.98 98.2122 1036.46 101.475L1005.57 119.487C1000.01 122.688 996.566 128.642 996.557 135.107C996.539 141.571 999.952 147.551 1005.51 150.77C1011.05 153.989 1017.88 153.954 1023.4 150.682L1054.29 132.67ZM946.834 91.3522C955.366 96.3301 966.267 93.375 971.195 84.7649L989.026 53.5695C992.265 47.9935 992.291 41.0896 989.104 35.4873C985.917 29.8849 979.997 26.4286 973.606 26.4461C967.207 26.4637 961.304 29.9377 958.144 35.5576L940.313 66.753C935.385 75.3632 938.31 86.3831 946.834 91.3522Z" fill="#FFFFFF"/>
</svg>
