<svg width="672" height="479" viewBox="0 0 672 479" fill="none" xmlns="http://www.w3.org/2000/svg">
<g clip-path="url(#clip0_25_2)">
<path d="M286.706 457.534C286.706 458.194 287.236 458.724 287.896 458.724H535.186C535.846 458.724 536.376 458.194 536.376 457.534C536.376 457.214 536.256 456.934 536.056 456.724H446.336C444.426 456.724 442.556 456.594 440.716 456.344H287.896C287.236 456.344 286.706 456.874 286.706 457.534Z" fill="#D1D5DB"/>
<path d="M167.23 246.999H304.899C328.222 246.999 347.129 265.906 347.129 289.229V399.662C347.129 422.985 328.222 441.892 304.899 441.892H167.23C143.907 441.892 125 422.985 125 399.662V289.229C125 265.906 143.907 246.999 167.23 246.999Z" fill="white"/>
<path d="M124 399.662V289.23C124 265.393 143.393 246 167.23 246H304.899C328.736 246 348.129 265.393 348.129 289.23V399.662C348.129 423.499 328.736 442.892 304.899 442.892H167.23C143.393 442.892 124 423.499 124 399.662ZM167.23 248C144.496 248 126 266.495 126 289.23V399.662C126 422.397 144.496 440.892 167.23 440.892H304.899C327.633 440.892 346.129 422.397 346.129 399.662V289.23C346.129 266.495 327.633 248 304.899 248H167.23Z" fill="#3F3D56"/>
<path d="M218.701 295.352H249.536L217.526 390.195C216.851 392.194 214.977 393.539 212.868 393.54H188.871C186.16 393.54 183.962 391.343 183.961 388.632C183.961 388.098 184.048 387.568 184.219 387.062L214.042 298.696C214.716 296.697 216.591 295.351 218.701 295.351L218.701 295.352Z" fill="url(#paint0_linear_25_2)"/>
<path d="M263.509 358.967H214.612C213.362 358.965 212.347 359.977 212.346 361.227C212.345 361.856 212.606 362.457 213.066 362.885L244.487 392.212C245.402 393.065 246.606 393.54 247.857 393.54H275.545L263.509 358.967Z" fill="#0078D4"/>
<path d="M218.701 295.352C216.566 295.344 214.674 296.725 214.031 298.761L184.256 386.981C183.341 389.53 184.666 392.337 187.215 393.252C187.75 393.444 188.315 393.541 188.884 393.54H213.501C215.367 393.206 216.91 391.894 217.539 390.105L223.477 372.606L244.687 392.389C245.576 393.124 246.691 393.53 247.844 393.54H275.429L263.331 358.967L228.062 358.975L249.648 295.352L218.701 295.352Z" fill="url(#paint1_linear_25_2)"/>
<path d="M258.086 298.691C257.412 296.695 255.54 295.352 253.434 295.352H219.068C221.174 295.352 223.046 296.696 223.72 298.691L253.544 387.061C254.411 389.63 253.032 392.416 250.462 393.283C249.956 393.454 249.426 393.541 248.892 393.541H283.259C285.971 393.54 288.169 391.341 288.168 388.629C288.168 388.096 288.081 387.566 287.91 387.061L258.086 298.691Z" fill="url(#paint2_linear_25_2)"/>
<path d="M43.23 0.99971H180.899C204.222 0.99971 223.129 19.9067 223.129 43.2297V153.663C223.129 176.985 204.222 195.892 180.899 195.892H43.23C19.9071 195.892 1.00006 176.985 1.00006 153.662V43.2297C1.00006 19.9067 19.9071 0.99971 43.23 0.99971Z" fill="white"/>
<path d="M0 153.663V43.23C0 19.3931 19.3931 0 43.23 0H180.899C204.736 0 224.129 19.3931 224.129 43.23V153.663C224.129 177.5 204.736 196.892 180.899 196.892H43.23C19.3931 196.892 0 177.5 0 153.663ZM43.23 2.00002C20.4956 2.00002 2 20.4956 2 43.23V153.663C2 176.397 20.4956 194.892 43.23 194.892H180.899C203.633 194.892 222.129 176.397 222.129 153.663V43.23C222.129 20.4956 203.633 2.00003 180.899 2.00003L43.23 2.00002Z" fill="#3F3D56"/>
<path d="M84.5689 100.136C84.5689 101.686 84.7366 102.944 85.0299 103.866C85.3652 104.788 85.7844 105.794 86.3711 106.884C86.5807 107.219 86.6645 107.554 86.6645 107.848C86.6645 108.267 86.413 108.686 85.8682 109.105L83.2277 110.865C82.8505 111.117 82.4733 111.242 82.138 111.242C81.7189 111.242 81.2998 111.033 80.8807 110.656C80.2939 110.027 79.791 109.356 79.3719 108.686C78.9527 107.973 78.5336 107.177 78.0726 106.213C74.8035 110.069 70.6961 111.997 65.7506 111.997C62.23 111.997 59.4219 110.991 57.3682 108.979C55.3146 106.967 54.2668 104.285 54.2668 100.932C54.2668 97.3695 55.5241 94.4776 58.0807 92.2982C60.6373 90.1188 64.0322 89.0291 68.3491 89.0291C69.7741 89.0291 71.241 89.1549 72.7917 89.3644C74.3424 89.574 75.9351 89.9093 77.6116 90.2865V87.227C77.6116 84.0417 76.941 81.8203 75.6417 80.5211C74.3005 79.2218 72.0373 78.5931 68.8101 78.5931C67.3432 78.5931 65.8344 78.7608 64.2836 79.138C62.7329 79.5152 61.2241 79.9762 59.7572 80.563C59.0866 80.8564 58.5836 81.024 58.2903 81.1078C57.9969 81.1917 57.7873 81.2336 57.6197 81.2336C57.0329 81.2336 56.7395 80.8144 56.7395 79.9343V77.8806C56.7395 77.21 56.8233 76.7071 57.0329 76.4137C57.2425 76.1203 57.6197 75.8269 58.2064 75.5335C59.6733 74.7791 61.4336 74.1505 63.4873 73.6475C65.541 73.1027 67.7204 72.8512 70.0255 72.8512C75.013 72.8512 78.6593 73.9828 81.0064 76.246C83.3115 78.5093 84.4851 81.946 84.4851 86.5563V100.136L84.5689 100.136ZM67.5528 106.506C68.9359 106.506 70.3608 106.255 71.8697 105.752C73.3785 105.249 74.7197 104.327 75.8513 103.07C76.5219 102.273 77.0248 101.393 77.2763 100.387C77.5277 99.3814 77.6954 98.1659 77.6954 96.7409V94.9806C76.48 94.6873 75.1807 94.4358 73.8395 94.2681C72.4983 94.1005 71.1991 94.0167 69.8998 94.0167C67.0917 94.0167 65.0381 94.5615 63.655 95.6931C62.2719 96.8248 61.6013 98.4174 61.6013 100.513C61.6013 102.483 62.1042 103.95 63.152 104.956C64.1579 106.003 65.6248 106.506 67.5528 106.506ZM101.208 111.033C100.453 111.033 99.9505 110.907 99.6152 110.614C99.2799 110.362 98.9865 109.775 98.7351 108.979L88.8858 76.5814C88.6343 75.7432 88.5086 75.1983 88.5086 74.9049C88.5086 74.2343 88.8439 73.8571 89.5145 73.8571H93.6218C94.4182 73.8571 94.963 73.9828 95.2564 74.2762C95.5917 74.5277 95.8432 75.1145 96.0946 75.9108L103.136 103.656L109.674 75.9108C109.884 75.0726 110.135 74.5277 110.47 74.2762C110.806 74.0248 111.392 73.8571 112.147 73.8571H115.5C116.296 73.8571 116.841 73.9828 117.176 74.2762C117.512 74.5277 117.805 75.1145 117.973 75.9108L124.595 103.992L131.845 75.9108C132.097 75.0726 132.39 74.5277 132.684 74.2762C133.019 74.0248 133.564 73.8571 134.318 73.8571H138.216C138.886 73.8571 139.264 74.1924 139.264 74.9049C139.264 75.1145 139.222 75.324 139.18 75.5755C139.138 75.827 139.054 76.1623 138.886 76.6233L128.786 109.021C128.534 109.859 128.241 110.404 127.906 110.656C127.57 110.907 127.025 111.075 126.313 111.075H122.709C121.912 111.075 121.367 110.949 121.032 110.656C120.697 110.362 120.403 109.817 120.236 108.979L113.739 81.946L107.285 108.937C107.075 109.775 106.824 110.32 106.489 110.614C106.153 110.907 105.567 111.033 104.812 111.033L101.208 111.033ZM155.064 112.164C152.885 112.164 150.706 111.913 148.61 111.41C146.514 110.907 144.88 110.362 143.79 109.734C143.12 109.356 142.659 108.937 142.491 108.56C142.323 108.183 142.239 107.764 142.239 107.386V105.249C142.239 104.369 142.575 103.95 143.203 103.95C143.455 103.95 143.706 103.992 143.958 104.075C144.209 104.159 144.586 104.327 145.006 104.495C146.431 105.123 147.981 105.626 149.616 105.961C151.292 106.297 152.927 106.464 154.603 106.464C157.244 106.464 159.297 106.003 160.722 105.081C162.147 104.159 162.902 102.818 162.902 101.1C162.902 99.9262 162.525 98.9622 161.77 98.1659C161.016 97.3696 159.591 96.6571 157.537 95.9865L151.46 94.1005C148.4 93.1365 146.137 91.7115 144.754 89.8255C143.371 87.9814 142.659 85.9277 142.659 83.7483C142.659 81.988 143.036 80.4373 143.79 79.0961C144.545 77.7549 145.55 76.5814 146.808 75.6593C148.065 74.6954 149.49 73.9828 151.167 73.4799C152.843 72.977 154.603 72.7674 156.447 72.7674C157.37 72.7674 158.334 72.8093 159.256 72.9351C160.22 73.0608 161.1 73.2285 161.98 73.3961C162.818 73.6057 163.614 73.8153 164.369 74.0667C165.123 74.3182 165.71 74.5696 166.129 74.8211C166.716 75.1564 167.135 75.4917 167.386 75.8689C167.638 76.2042 167.764 76.6653 167.764 77.252V79.2219C167.764 80.102 167.428 80.563 166.8 80.563C166.464 80.563 165.92 80.3954 165.207 80.0601C162.818 78.9704 160.136 78.4255 157.16 78.4255C154.771 78.4255 152.885 78.8027 151.586 79.5991C150.286 80.3954 149.616 81.6108 149.616 83.3292C149.616 84.5027 150.035 85.5086 150.873 86.3049C151.711 87.1013 153.262 87.8976 155.484 88.6101L161.435 90.4961C164.453 91.4601 166.632 92.8012 167.931 94.5196C169.231 96.238 169.859 98.2078 169.859 100.387C169.859 102.189 169.482 103.824 168.77 105.249C168.015 106.674 167.009 107.931 165.71 108.937C164.411 109.985 162.86 110.739 161.058 111.284C159.172 111.871 157.202 112.164 155.064 112.164Z" fill="#252F3E"/>
<path fill-rule="evenodd" clip-rule="evenodd" d="M162.986 132.533C149.197 142.718 129.163 148.125 111.937 148.125C87.7961 148.125 66.044 139.197 49.6146 124.361C48.3153 123.187 49.4888 121.595 51.0396 122.517C68.8101 132.827 90.73 139.072 113.404 139.072C128.702 139.072 145.509 135.886 160.974 129.348C163.279 128.3 165.249 130.857 162.986 132.533Z" fill="#FF9900"/>
<path fill-rule="evenodd" clip-rule="evenodd" d="M168.728 125.995C166.967 123.732 157.076 124.906 152.592 125.45C151.25 125.618 151.041 124.445 152.256 123.564C160.136 118.032 173.086 119.625 174.595 121.469C176.104 123.355 174.176 136.306 166.8 142.509C165.668 143.472 164.578 142.97 165.081 141.712C166.758 137.563 170.488 128.217 168.728 125.995Z" fill="#FF9900"/>
<path d="M428.43 74.5462C427.43 73.5462 419.43 52.5462 419.43 52.5462L400.43 51.5462L391.737 72.0423L428.43 74.5462Z" fill="#FFB6B6"/>
<path d="M401.474 61.2209C415.599 61.2209 427.05 49.7704 427.05 35.6456C427.05 21.5207 415.599 10.0703 401.474 10.0703C387.35 10.0703 375.899 21.5207 375.899 35.6456C375.899 49.7704 387.35 61.2209 401.474 61.2209Z" fill="#FFB6B6"/>
<path d="M449.93 213.046L458.93 243.046L434.93 417.046H418.682L409.93 286.046L399.93 331.046L450.93 396.046L437.93 411.046L364.43 339.546L365.93 229.046L371.93 212.046L449.93 213.046Z" fill="#2F2E41"/>
<path d="M422.916 56.6554L420.919 56.7538C420.919 56.7538 419.133 40.8224 418.085 39.8728C417.037 38.9232 415.137 41.0192 415.137 41.0192C415.137 41.0192 406.901 36.4189 406.655 31.425C406.409 26.431 406.212 22.4358 403.216 22.5835C400.219 22.7311 383.437 27.5627 379.442 27.7596C375.447 27.9564 369.109 21.2601 375.806 14.9229C382.502 8.58575 388.396 6.29296 389.346 5.24495C390.295 4.19694 396.547 -0.115916 402.01 3.61985C407.472 7.35562 414.463 7.01118 414.463 7.01118C414.463 7.01118 427.595 9.36788 425.893 15.459C424.19 21.5502 430.774 33.2404 428.072 39.3807C425.371 45.5211 422.916 56.6554 422.916 56.6554Z" fill="#2F2E41"/>
<path d="M417.93 414.046L435.93 416.046L437.93 449.046C437.93 449.046 436.93 465.046 419.93 463.046C402.93 461.046 407.93 445.046 407.93 445.046L417.93 414.046Z" fill="#2F2E41"/>
<path d="M441.43 390.546C441.43 390.546 454.43 384.546 456.43 391.546L460.43 405.546C460.43 405.546 460.43 419.546 461.43 420.546C462.43 421.546 481.43 447.546 464.43 461.546C464.43 461.546 455.43 462.546 450.43 448.546C445.43 434.546 430.43 420.546 430.43 420.546C430.43 420.546 427.525 413.546 432.478 414.046C437.43 414.546 444.43 402.546 442.43 398.546C440.43 394.546 441.43 390.546 441.43 390.546Z" fill="#2F2E41"/>
<path d="M276.329 259.901C271.676 257.941 270.401 250.427 273.481 243.113C274.672 240.175 276.548 237.565 278.954 235.501L282.548 227.258L282.42 227.171L292.753 185.988C295.156 176.413 301.771 168.334 310.856 164.471C316.26 162.172 321.388 161.757 322.879 167.264C325.354 176.401 309.237 205.836 299.52 222.397L291.949 240.974C292.153 244.138 291.597 247.306 290.326 250.211C287.248 257.522 280.981 261.86 276.329 259.901Z" fill="#FFB6B6"/>
<path d="M392.43 68.5462L425.43 69.5462L457.43 83.5462L452.43 166.546C452.43 166.546 458.43 185.546 455.43 188.546C452.43 191.546 455.43 204.995 453.43 205.271C451.43 205.546 453.43 220.011 453.43 220.011C453.43 220.011 425.43 210.546 401.43 216.546C377.43 222.546 369.43 212.546 369.43 212.546C369.43 212.546 363.43 188.546 363.43 183.546V81.3022L392.43 68.5462Z" fill="#9333EA"/>
<path d="M368.93 81.0462C368.93 81.0462 354.93 77.0462 347.93 87.0462C340.93 97.0462 336.93 97.0462 336.93 110.046C336.93 110.046 295.93 168.046 297.93 174.046L288.43 189.546L312.43 202.546C312.43 202.546 320.93 194.046 320.93 186.046C320.93 178.046 344.93 156.046 344.93 156.046C344.93 156.046 365.93 129.046 366.93 119.046C367.93 109.046 368.93 81.0462 368.93 81.0462Z" fill="#9333EA"/>
<path d="M492.23 264.999H629.899C653.222 264.999 672.129 283.906 672.129 307.229V417.662C672.129 440.985 653.222 459.892 629.899 459.892H492.23C468.907 459.892 450 440.985 450 417.662V307.229C450 283.906 468.907 264.999 492.23 264.999Z" fill="white"/>
<path d="M448 416.663V306.23C448 282.393 467.393 263 491.23 263H628.899C652.736 263 672.129 282.393 672.129 306.23V416.663C672.129 440.5 652.736 459.892 628.899 459.892H491.23C467.393 459.892 448 440.5 448 416.663ZM491.23 265C468.496 265 450 283.496 450 306.23V416.663C450 439.397 468.496 457.892 491.23 457.892H628.899C651.633 457.892 670.129 439.397 670.129 416.663V306.23C670.129 283.496 651.633 265 628.899 265H491.23Z" fill="#3F3D56"/>
<path d="M578.588 342.211H581.986L591.667 332.529L592.143 328.419C574.124 312.514 546.623 314.229 530.719 332.248C526.301 337.253 523.094 343.208 521.346 349.651C522.425 349.209 523.62 349.137 524.743 349.447L544.107 346.254C544.107 346.254 545.092 344.623 545.602 344.725C554.215 335.265 568.711 334.163 578.656 342.211L578.588 342.211Z" fill="#EA4335"/>
<path d="M605.46 349.651C603.235 341.456 598.665 334.088 592.313 328.453L578.724 342.041C584.462 346.73 587.731 353.793 587.591 361.201V363.613C594.27 363.613 599.685 369.028 599.685 375.707C599.685 382.387 594.27 387.801 587.591 387.801H563.403L560.991 390.247V404.753L563.403 407.165H587.591C604.964 407.3 619.157 393.326 619.293 375.953C619.375 365.423 614.182 355.551 605.46 349.651Z" fill="#4285F4"/>
<path d="M539.181 407.029H563.369V387.665H539.181C537.458 387.665 535.755 387.294 534.187 386.578L530.79 387.631L521.04 397.313L520.191 400.71C525.659 404.839 532.33 407.059 539.181 407.029Z" fill="#34A853"/>
<path d="M539.181 344.216C521.808 344.319 507.808 358.487 507.912 375.861C507.97 385.562 512.501 394.694 520.191 400.609L534.221 386.578C528.134 383.828 525.429 376.664 528.179 370.578C530.93 364.491 538.093 361.786 544.18 364.536C546.862 365.747 549.01 367.896 550.222 370.578L564.252 356.547C558.283 348.743 549.007 344.181 539.181 344.216Z" fill="#FBBC05"/>
<path d="M477.513 282.529C482.555 282.265 486.305 275.629 485.889 267.705C485.767 264.537 484.887 261.445 483.325 258.686L482.742 249.713L482.892 249.675L487.149 207.429C488.139 197.607 484.658 187.763 477.424 181.045C473.12 177.049 468.437 174.918 465.166 179.592C459.737 187.347 464.907 220.504 468.427 239.38L469.244 259.424C467.977 262.332 467.426 265.5 467.635 268.664C468.049 276.586 472.472 282.793 477.513 282.529Z" fill="#FFB6B6"/>
<path d="M451.109 82.8623C451.109 82.8623 465.636 83.8512 468.827 95.6334C472.017 107.416 475.78 108.773 471.368 121.002C471.368 121.002 490.25 189.474 486.332 194.439L490.008 212.243L463.02 216.326C463.02 216.326 457.909 205.446 460.624 197.921C463.34 190.396 448.231 161.556 448.231 161.556C448.231 161.556 437.641 129.031 440.094 119.286C442.547 109.54 451.109 82.8623 451.109 82.8623Z" fill="#9333EA"/>
</g>
<defs>
<linearGradient id="paint0_linear_25_2" x1="229.939" y1="302.628" x2="197.916" y2="397.233" gradientUnits="userSpaceOnUse">
<stop stop-color="#114A8B"/>
<stop offset="1" stop-color="#0669BC"/>
</linearGradient>
<linearGradient id="paint1_linear_25_2" x1="239.942" y1="346.715" x2="232.535" y2="349.22" gradientUnits="userSpaceOnUse">
<stop stop-opacity="0.3"/>
<stop offset="0.071" stop-opacity="0.2"/>
<stop offset="0.321" stop-opacity="0.1"/>
<stop offset="0.623" stop-opacity="0.05"/>
<stop offset="1" stop-opacity="0"/>
</linearGradient>
<linearGradient id="paint2_linear_25_2" x1="236.099" y1="299.782" x2="271.251" y2="393.434" gradientUnits="userSpaceOnUse">
<stop stop-color="#3CCBF4"/>
<stop offset="1" stop-color="#2892DF"/>
</linearGradient>
<clipPath id="clip0_25_2">
<rect width="672" height="479" fill="white"/>
</clipPath>
</defs>
</svg>
