<svg width="898" height="557" viewBox="0 0 898 557" fill="none" xmlns="http://www.w3.org/2000/svg">
<g clip-path="url(#clip0_95_739)">
<mask id="mask0_95_739" style="mask-type:luminance" maskUnits="userSpaceOnUse" x="0" y="0" width="898" height="557">
<path d="M897.318 0H0V556.975H897.318V0Z" fill="white"/>
</mask>
<g mask="url(#mask0_95_739)">
<path d="M217.339 502.047L218.337 479.612C228.738 474.053 240.339 471.116 252.132 471.057C235.901 484.328 237.929 509.909 226.925 527.754C223.45 533.294 218.773 537.981 213.241 541.467C207.708 544.953 201.462 547.15 194.965 547.894L181.382 556.211C179.519 545.82 179.929 535.149 182.587 524.933C185.244 514.716 190.085 505.197 196.775 497.032C200.574 492.488 204.93 488.441 209.74 484.986C212.993 493.564 217.339 502.047 217.339 502.047Z" fill="#F2F2F2"/>
<path d="M796.922 36.5525H164.598C164.333 36.5467 164.08 36.4371 163.895 36.2473C163.709 36.0576 163.605 35.8026 163.605 35.5371C163.605 35.2717 163.709 35.0167 163.895 34.8269C164.08 34.6372 164.333 34.5276 164.598 34.5218H796.922C797.187 34.5276 797.44 34.6372 797.625 34.8269C797.811 35.0167 797.915 35.2717 797.915 35.5371C797.915 35.8026 797.811 36.0576 797.625 36.2473C797.44 36.4371 797.187 36.5467 796.922 36.5525Z" fill="#CACACA"/>
<path d="M186.953 22.3376C192.987 22.3376 197.879 17.3372 197.879 11.1688C197.879 5.00045 192.987 0 186.953 0C180.919 0 176.028 5.00045 176.028 11.1688C176.028 17.3372 180.919 22.3376 186.953 22.3376Z" fill="#3F3D56"/>
<path d="M224.695 22.3376C230.729 22.3376 235.621 17.3372 235.621 11.1688C235.621 5.00045 230.729 0 224.695 0C218.661 0 213.77 5.00045 213.77 11.1688C213.77 17.3372 218.661 22.3376 224.695 22.3376Z" fill="#3F3D56"/>
<path d="M262.437 22.3376C268.471 22.3376 273.363 17.3372 273.363 11.1688C273.363 5.00045 268.471 0 262.437 0C256.403 0 251.512 5.00045 251.512 11.1688C251.512 17.3372 256.403 22.3376 262.437 22.3376Z" fill="#3F3D56"/>
<path d="M774.304 2.76831H747.494C746.963 2.77886 746.457 2.99737 746.085 3.37692C745.713 3.75647 745.504 4.26679 745.504 4.79831C745.504 5.32983 745.713 5.84015 746.085 6.2197C746.457 6.59925 746.963 6.81776 747.494 6.82831H774.304C774.836 6.81776 775.342 6.59925 775.714 6.2197C776.086 5.84015 776.295 5.32983 776.295 4.79831C776.295 4.26679 776.086 3.75647 775.714 3.37692C775.342 2.99737 774.836 2.77886 774.304 2.76831Z" fill="#F7931D"/>
<path d="M774.304 10.3883H747.494C746.963 10.3989 746.457 10.6174 746.085 10.9969C745.713 11.3765 745.504 11.8868 745.504 12.4183C745.504 12.9498 745.713 13.4601 746.085 13.8397C746.457 14.2192 746.963 14.4378 747.494 14.4483H774.304C774.836 14.4378 775.342 14.2192 775.714 13.8397C776.086 13.4601 776.295 12.9498 776.295 12.4183C776.295 11.8868 776.086 11.3765 775.714 10.9969C775.342 10.6174 774.836 10.3989 774.304 10.3883Z" fill="#F7931D"/>
<path d="M774.304 17.9983H747.494C746.963 18.0088 746.457 18.2273 746.085 18.6069C745.713 18.9864 745.504 19.4968 745.504 20.0283C745.504 20.5598 745.713 21.0701 746.085 21.4497C746.457 21.8292 746.963 22.0477 747.494 22.0583H774.304C774.836 22.0477 775.342 21.8292 775.714 21.4497C776.086 21.0701 776.295 20.5598 776.295 20.0283C776.295 19.4968 776.086 18.9864 775.714 18.6069C775.342 18.2273 774.836 18.0088 774.304 17.9983Z" fill="#F7931D"/>
<path d="M656.713 116.141H222.703C220.565 116.142 218.514 116.99 217.001 118.502C215.487 120.013 214.636 122.063 214.633 124.201V329.071C214.636 331.211 215.487 333.262 217 334.775C218.512 336.288 220.564 337.139 222.703 337.141H656.713C658.851 337.137 660.9 336.285 662.411 334.772C663.922 333.26 664.771 331.209 664.773 329.071V124.201C664.771 122.064 663.921 120.016 662.41 118.505C660.899 116.994 658.85 116.144 656.713 116.141Z" fill="#3F3D56"/>
<path d="M542.073 214.842C539.936 214.844 537.887 215.694 536.376 217.205C534.865 218.716 534.015 220.765 534.013 222.902V280.772C534.015 282.91 534.864 284.96 536.375 286.472C537.886 287.985 539.935 288.837 542.073 288.842H664.773V214.842H542.073Z" fill="#9333EA"/>
<path opacity="0.5" d="M871.088 288.837H542.078C539.939 288.835 537.889 287.984 536.376 286.472C534.864 284.96 534.014 282.91 534.011 280.771V222.903C534.014 220.765 534.864 218.715 536.377 217.202C537.889 215.69 539.939 214.84 542.078 214.837H871.088C873.226 214.84 875.277 215.69 876.789 217.202C878.301 218.715 879.152 220.765 879.154 222.903V280.771C879.152 282.91 878.301 284.96 876.789 286.472C875.277 287.984 873.226 288.835 871.088 288.837Z" fill="#9333EA"/>
<path d="M586.571 268.626C593.8 268.626 599.66 262.766 599.66 255.537C599.66 248.308 593.8 242.447 586.571 242.447C579.342 242.447 573.482 248.308 573.482 255.537C573.482 262.766 579.342 268.626 586.571 268.626Z" fill="white"/>
<path d="M860.894 251.734H624.38C623.346 251.734 622.355 251.323 621.624 250.592C620.893 249.861 620.482 248.87 620.482 247.836C620.482 246.802 620.893 245.811 621.624 245.08C622.355 244.349 623.346 243.938 624.38 243.938H860.894C861.927 243.938 862.919 244.349 863.65 245.08C864.381 245.811 864.792 246.802 864.792 247.836C864.792 248.87 864.381 249.861 863.65 250.592C862.919 251.323 861.927 251.734 860.894 251.734Z" fill="#F7931D"/>
<path d="M771.063 267.135H624.38C623.346 267.135 622.354 266.725 621.623 265.994C620.892 265.263 620.482 264.271 620.482 263.238C620.482 262.204 620.892 261.212 621.623 260.481C622.354 259.75 623.346 259.34 624.38 259.34H771.063C772.097 259.34 773.089 259.75 773.82 260.481C774.551 261.212 774.961 262.204 774.961 263.238C774.961 264.271 774.551 265.263 773.82 265.994C773.089 266.725 772.097 267.135 771.063 267.135Z" fill="white"/>
<path d="M151.406 545.537L162.734 545.536L168.123 501.843H151.404L151.406 545.537Z" fill="#FFB6B6"/>
<path d="M148.517 541.838H151.705L164.154 536.776L170.826 541.837C174.596 541.837 178.213 543.335 180.879 546.001C183.545 548.667 185.043 552.283 185.043 556.054V556.516L148.517 556.517V541.838Z" fill="#2F2E41"/>
<path d="M49.051 530.809L59.19 535.862L83.504 499.161L68.541 491.703L49.051 530.809Z" fill="#FFB6B6"/>
<path d="M48.115 526.21L50.9687 527.632L64.3681 528.654L68.0814 536.161C71.4558 537.843 74.0246 540.797 75.2214 544.372C76.4183 547.948 76.1458 551.852 74.4641 555.227L74.258 555.641L41.5673 539.348L48.115 526.21Z" fill="#2F2E41"/>
<path d="M156.425 347.096L84.3992 348.975L85.6518 384.049C85.6518 384.049 84.3992 393.444 86.9044 395.949C89.4097 398.454 90.6623 398.454 89.4097 402.838C88.157 407.223 84.9187 449.112 84.9187 449.112C84.9187 449.112 55.3572 501.382 56.6098 502.634C57.8624 503.887 59.115 502.634 57.8624 505.766C56.6098 508.898 55.3572 507.645 56.6098 508.898C57.7194 510.094 58.7647 511.348 59.7414 512.655H80.1569C80.1569 512.655 81.2986 506.392 81.2986 505.766C81.2986 505.14 82.5512 501.382 82.5512 500.756C82.5512 500.129 118.22 462.338 118.22 462.338L125.736 399.707L143.899 461.085C143.899 461.085 143.899 514.948 145.152 516.201C146.404 517.454 146.404 516.827 145.778 519.333C145.152 521.838 142.646 521.211 144.525 523.09C146.404 524.969 147.03 521.838 146.404 524.969L145.778 528.101L169.84 528.37C169.84 528.37 172.346 523.09 171.093 521.211C169.84 519.333 169.915 519.845 171.444 516.771C172.972 513.696 173.598 513.069 172.972 512.443C172.346 511.817 172.346 508.485 172.346 508.485C172.346 508.485 163.315 385.302 163.315 383.423C163.267 382.456 163.446 381.491 163.835 380.605V378.055L161.436 369.017L156.425 347.096Z" fill="#2F2E41"/>
<path d="M869.68 238.348C864.214 238.348 858.871 236.727 854.326 233.69C849.781 230.653 846.238 226.337 844.146 221.286C842.054 216.236 841.507 210.679 842.573 205.318C843.64 199.957 846.272 195.032 850.137 191.167C854.003 187.301 858.927 184.669 864.289 183.603C869.65 182.536 875.207 183.084 880.257 185.176C885.307 187.267 889.624 190.81 892.661 195.355C895.697 199.9 897.318 205.243 897.318 210.71C897.318 218.04 894.407 225.07 889.223 230.253C884.04 235.436 877.01 238.348 869.68 238.348Z" fill="#9333EA"/>
<path d="M880.586 207.984H872.407V199.805C872.407 199.081 872.12 198.388 871.608 197.877C871.097 197.365 870.403 197.078 869.68 197.078C868.957 197.078 868.264 197.365 867.753 197.877C867.241 198.388 866.954 199.081 866.954 199.805V207.984H858.775C858.417 207.983 858.062 208.053 857.73 208.19C857.399 208.326 857.098 208.527 856.844 208.78C856.59 209.033 856.389 209.334 856.252 209.665C856.114 209.996 856.044 210.351 856.044 210.71C856.044 211.068 856.114 211.423 856.252 211.754C856.389 212.085 856.59 212.386 856.844 212.639C857.098 212.893 857.399 213.093 857.73 213.23C858.062 213.367 858.417 213.437 858.775 213.436H866.954V221.615C866.954 222.338 867.241 223.032 867.753 223.543C868.264 224.054 868.957 224.342 869.68 224.342C870.403 224.342 871.097 224.054 871.608 223.543C872.12 223.032 872.407 222.338 872.407 221.615V213.436H880.586C881.309 213.436 882.002 213.149 882.513 212.638C883.025 212.126 883.312 211.433 883.312 210.71C883.312 209.987 883.025 209.293 882.513 208.782C882.002 208.271 881.309 207.984 880.586 207.984Z" fill="white"/>
<path d="M447.883 289.211H342.873C340.734 289.214 338.682 290.065 337.17 291.578C335.657 293.091 334.806 295.142 334.803 297.281V337.141H455.943V297.281C455.942 295.143 455.092 293.093 453.581 291.581C452.07 290.068 450.021 289.216 447.883 289.211Z" fill="#9333EA"/>
<path opacity="0.5" d="M447.88 401.211H342.87C340.731 401.209 338.681 400.358 337.169 398.846C335.656 397.334 334.806 395.284 334.803 393.145V297.278C334.806 295.139 335.656 293.089 337.169 291.577C338.681 290.064 340.731 289.214 342.87 289.211H447.88C450.018 289.214 452.069 290.064 453.581 291.577C455.093 293.089 455.944 295.139 455.946 297.278V393.145C455.944 395.284 455.093 397.334 453.581 398.846C452.069 400.358 450.018 401.209 447.88 401.211Z" fill="#9333EA"/>
<path d="M373.808 334.652C381.037 334.652 386.898 328.792 386.898 321.563C386.898 314.334 381.037 308.473 373.808 308.473C366.579 308.473 360.719 314.334 360.719 321.563C360.719 328.792 366.579 334.652 373.808 334.652Z" fill="white"/>
<path d="M426.131 354.547H364.617C363.583 354.547 362.592 354.137 361.861 353.406C361.13 352.675 360.719 351.683 360.719 350.649C360.719 349.616 361.13 348.624 361.861 347.893C362.592 347.162 363.583 346.752 364.617 346.752H426.131C427.165 346.752 428.156 347.162 428.887 347.893C429.618 348.624 430.029 349.616 430.029 350.649C430.029 351.683 429.618 352.675 428.887 353.406C428.156 354.137 427.165 354.547 426.131 354.547Z" fill="#F7931D"/>
<path d="M394.301 369.949H364.617C363.583 369.949 362.592 369.539 361.861 368.807C361.13 368.076 360.719 367.085 360.719 366.051C360.719 365.017 361.13 364.026 361.861 363.295C362.592 362.564 363.583 362.153 364.617 362.153H394.301C395.334 362.153 396.326 362.564 397.057 363.295C397.788 364.026 398.199 365.017 398.199 366.051C398.199 367.085 397.788 368.076 397.057 368.807C396.326 369.539 395.334 369.949 394.301 369.949Z" fill="white"/>
<path d="M340.68 429.348C335.214 429.348 329.871 427.727 325.326 424.69C320.781 421.653 317.238 417.337 315.146 412.286C313.054 407.236 312.507 401.679 313.573 396.318C314.64 390.957 317.272 386.032 321.137 382.167C325.003 378.302 329.927 375.669 335.288 374.603C340.65 373.536 346.207 374.084 351.257 376.176C356.307 378.267 360.624 381.81 363.661 386.355C366.697 390.9 368.318 396.244 368.318 401.71C368.318 409.04 365.407 416.07 360.223 421.253C355.04 426.436 348.01 429.348 340.68 429.348Z" fill="#9333EA"/>
<path d="M351.586 398.984H343.407V390.805C343.407 390.081 343.12 389.388 342.608 388.877C342.097 388.365 341.403 388.078 340.68 388.078C339.957 388.078 339.264 388.365 338.753 388.877C338.241 389.388 337.954 390.081 337.954 390.805V398.984H329.775C329.417 398.983 329.062 399.053 328.73 399.19C328.399 399.326 328.098 399.527 327.844 399.78C327.59 400.033 327.389 400.334 327.252 400.665C327.114 400.996 327.044 401.351 327.044 401.71C327.044 402.068 327.114 402.423 327.252 402.754C327.389 403.085 327.59 403.386 327.844 403.639C328.098 403.893 328.399 404.093 328.73 404.23C329.062 404.367 329.417 404.437 329.775 404.436H337.954V412.615C337.954 413.338 338.241 414.032 338.753 414.543C339.264 415.054 339.957 415.341 340.68 415.341C341.403 415.341 342.097 415.054 342.608 414.543C343.12 414.032 343.407 413.338 343.407 412.615V404.436H351.586C352.309 404.436 353.002 404.149 353.513 403.638C354.025 403.126 354.312 402.433 354.312 401.71C354.312 400.987 354.025 400.293 353.513 399.782C353.002 399.271 352.309 398.984 351.586 398.984Z" fill="white"/>
<path d="M327.887 228.266H222.877C220.738 228.264 218.688 227.413 217.176 225.901C215.663 224.389 214.813 222.339 214.81 220.2V124.332C214.813 122.194 215.664 120.144 217.176 118.632C218.688 117.119 220.738 116.269 222.877 116.266H327.887C330.025 116.269 332.076 117.119 333.588 118.632C335.1 120.144 335.951 122.194 335.953 124.332V220.2C335.951 222.339 335.1 224.389 333.588 225.901C332.076 227.413 330.026 228.264 327.887 228.266Z" fill="#9333EA"/>
<path d="M253.816 169.707C261.045 169.707 266.906 163.847 266.906 156.618C266.906 149.389 261.045 143.529 253.816 143.529C246.587 143.529 240.727 149.389 240.727 156.618C240.727 163.847 246.587 169.707 253.816 169.707Z" fill="#9333EA"/>
<path d="M306.139 185.602H244.625C243.591 185.602 242.6 185.192 241.869 184.461C241.138 183.73 240.727 182.738 240.727 181.705C240.727 180.671 241.138 179.679 241.869 178.949C242.6 178.218 243.591 177.807 244.625 177.807H306.139C307.173 177.807 308.164 178.218 308.895 178.949C309.626 179.679 310.037 180.671 310.037 181.705C310.037 182.738 309.626 183.73 308.895 184.461C308.164 185.192 307.173 185.602 306.139 185.602Z" fill="#9333EA"/>
<path d="M274.308 201.004H244.625C243.591 201.004 242.6 200.594 241.869 199.863C241.138 199.132 240.727 198.14 240.727 197.106C240.727 196.073 241.138 195.081 241.869 194.35C242.6 193.619 243.591 193.208 244.625 193.208H274.308C275.342 193.208 276.334 193.619 277.065 194.35C277.796 195.081 278.206 196.073 278.206 197.106C278.206 198.14 277.796 199.132 277.065 199.863C276.334 200.594 275.342 201.004 274.308 201.004Z" fill="#9333EA"/>
<path opacity="0.5" d="M327.887 228.266H222.877C220.738 228.264 218.688 227.413 217.176 225.901C215.663 224.389 214.813 222.339 214.81 220.2V124.332C214.813 122.194 215.664 120.144 217.176 118.632C218.688 117.119 220.738 116.269 222.877 116.266H327.887C330.025 116.269 332.076 117.119 333.588 118.632C335.1 120.144 335.951 122.194 335.953 124.332V220.2C335.951 222.339 335.1 224.389 333.588 225.901C332.076 227.413 330.026 228.264 327.887 228.266Z" fill="#9333EA"/>
<path d="M253.816 169.707C261.045 169.707 266.906 163.847 266.906 156.618C266.906 149.389 261.045 143.529 253.816 143.529C246.587 143.529 240.727 149.389 240.727 156.618C240.727 163.847 246.587 169.707 253.816 169.707Z" fill="white"/>
<path d="M306.139 185.602H244.625C243.591 185.602 242.6 185.192 241.869 184.461C241.138 183.73 240.727 182.738 240.727 181.705C240.727 180.671 241.138 179.679 241.869 178.949C242.6 178.218 243.591 177.807 244.625 177.807H306.139C307.173 177.807 308.164 178.218 308.895 178.949C309.626 179.679 310.037 180.671 310.037 181.705C310.037 182.738 309.626 183.73 308.895 184.461C308.164 185.192 307.173 185.602 306.139 185.602Z" fill="#F7931D"/>
<path d="M274.308 201.004H244.625C243.591 201.004 242.6 200.594 241.869 199.863C241.138 199.132 240.727 198.14 240.727 197.106C240.727 196.073 241.138 195.081 241.869 194.35C242.6 193.619 243.591 193.208 244.625 193.208H274.308C275.342 193.208 276.334 193.619 277.065 194.35C277.796 195.081 278.206 196.073 278.206 197.106C278.206 198.14 277.796 199.132 277.065 199.863C276.334 200.594 275.342 201.004 274.308 201.004Z" fill="white"/>
<path d="M225.043 136.951C236.641 136.951 246.043 127.549 246.043 115.951C246.043 104.354 236.641 94.9515 225.043 94.9515C213.445 94.9515 204.043 104.354 204.043 115.951C204.043 127.549 213.445 136.951 225.043 136.951Z" fill="#F7931D"/>
<path d="M282.67 555.785C282.671 555.942 282.64 556.097 282.58 556.241C282.521 556.386 282.433 556.517 282.323 556.628C282.212 556.738 282.081 556.826 281.936 556.886C281.791 556.945 281.636 556.976 281.48 556.975H1.18997C0.874364 556.975 0.571679 556.85 0.348511 556.627C0.125342 556.404 -3.05176e-05 556.101 -3.05176e-05 555.785C-3.05176e-05 555.47 0.125342 555.167 0.348511 554.944C0.571679 554.721 0.874364 554.595 1.18997 554.595H281.48C281.636 554.595 281.791 554.625 281.936 554.685C282.081 554.745 282.212 554.832 282.323 554.943C282.433 555.053 282.521 555.185 282.58 555.329C282.64 555.474 282.671 555.629 282.67 555.785Z" fill="#CCCCCC"/>
<path d="M220.555 171.576C221.418 173.99 221.298 176.646 220.221 178.972C219.144 181.299 217.195 183.108 214.796 184.011C214.265 184.209 213.718 184.36 213.161 184.462L207.614 218.421L194.604 206.409L201.866 176.002C201.597 173.44 202.347 170.875 203.955 168.861C205.562 166.848 207.897 165.548 210.455 165.243C212.608 164.996 214.78 165.489 216.615 166.639C218.45 167.79 219.84 169.531 220.555 171.576Z" fill="#FFB6B6"/>
<path d="M124.54 248.524C124.54 248.524 134.638 235.183 171.279 235.548L192.077 227.992L196.83 184.422L213.466 188.383L211.089 242.251L175.441 262.848L128.702 272.354L124.54 248.524Z" fill="#3F3D56"/>
<path d="M119.175 220.73C131.186 220.73 140.923 210.994 140.923 198.983C140.923 186.972 131.186 177.235 119.175 177.235C107.165 177.235 97.4279 186.972 97.4279 198.983C97.4279 210.994 107.165 220.73 119.175 220.73Z" fill="#FFB6B6"/>
<path d="M82.3673 363.878C82.3287 363.878 82.2903 363.873 82.2532 363.862C81.8517 363.75 81.5345 363.662 82.9835 351.133L84.5473 341.229L83.0206 332.485L80.4526 329.917L84.5799 325.79L88.0433 315.952L82.0505 307.071L75.175 270.755C73.9929 264.488 74.9115 258.007 77.7881 252.316C80.6648 246.624 85.3389 242.041 91.0856 239.277L99.0433 236.952L101.939 231.642C102.752 230.151 103.949 228.904 105.406 228.032C106.863 227.159 108.527 226.692 110.225 226.68L124.798 226.571C126.268 226.56 127.721 226.889 129.043 227.534C130.364 228.178 131.518 229.12 132.415 230.286L137.499 236.895L158.581 244.056L155.086 319.378C155.641 319.842 156.094 320.417 156.415 321.066C156.737 321.715 156.921 322.423 156.954 323.146C156.988 323.87 156.871 324.592 156.612 325.268C156.352 325.944 155.955 326.559 155.445 327.073C155.226 327.294 155.052 327.474 154.944 327.593C154.589 328.098 155.256 331.868 156.079 335.068L157.135 339.97C156.796 340.212 156.511 340.522 156.298 340.88C156.085 341.238 155.948 341.636 155.897 342.049C155.846 342.462 155.88 342.882 155.999 343.281C156.118 343.68 156.318 344.05 156.587 344.368L157.934 345.959C158.2 347.953 157.664 349.972 156.445 351.572C155.225 353.172 153.42 354.222 151.426 354.494C132.159 357.116 82.468 363.878 82.3673 363.878Z" fill="#3F3D56"/>
<path d="M113.612 219.665C113.519 219.461 113.426 219.256 113.334 219.05C113.37 219.051 113.405 219.056 113.44 219.057L113.612 219.665Z" fill="#2F2E41"/>
<path d="M96.8231 178.224C97.8556 177.25 99.1978 176.67 100.615 176.585C102.021 176.63 103.447 177.9 103.156 179.277C105.739 174.703 109.85 171.186 114.769 169.342C119.687 167.497 125.097 167.444 130.051 169.192C133.546 170.425 136.973 172.892 137.776 176.51C137.854 177.46 138.138 178.382 138.607 179.212C139.013 179.656 139.54 179.971 140.123 180.119C140.707 180.266 141.32 180.24 141.889 180.044L141.923 180.033C142.118 179.967 142.328 179.96 142.526 180.015C142.725 180.069 142.902 180.181 143.036 180.338C143.17 180.494 143.254 180.687 143.277 180.891C143.3 181.095 143.261 181.302 143.165 181.484L142.176 183.328C143.423 183.606 144.718 183.579 145.952 183.248C146.157 183.194 146.373 183.205 146.572 183.279C146.77 183.354 146.941 183.487 147.06 183.662C147.18 183.837 147.242 184.045 147.239 184.257C147.235 184.469 147.167 184.674 147.042 184.846C145.398 187.094 143.253 188.928 140.776 190.201C138.299 191.475 135.558 192.152 132.773 192.18C128.822 192.156 124.83 190.794 120.984 191.703C119.496 192.054 118.106 192.734 116.916 193.693C115.725 194.652 114.764 195.865 114.104 197.244C113.443 198.623 113.1 200.132 113.099 201.66C113.097 203.189 113.438 204.699 114.097 206.078C112.915 204.786 110.631 205.092 109.423 206.359C108.866 207.037 108.455 207.822 108.214 208.666C107.974 209.51 107.909 210.394 108.023 211.264C108.346 213.928 109.137 216.514 110.36 218.902C105.687 218.758 101.171 217.184 97.4217 214.392C93.6724 211.599 90.8705 207.723 89.3943 203.288C87.9182 198.852 87.8391 194.07 89.1676 189.588C90.4961 185.106 93.1682 181.139 96.8231 178.224Z" fill="#2F2E41"/>
<path d="M90.8395 395.068C88.7603 393.569 87.3537 391.312 86.923 388.785C86.4923 386.258 87.0721 383.663 88.5372 381.559C88.8622 381.095 89.2277 380.661 89.6293 380.261L74.954 349.138L92.4809 351.662L103.73 380.83C105.403 382.789 106.239 385.328 106.055 387.898C105.872 390.467 104.684 392.862 102.75 394.563C101.116 395.986 99.0476 396.811 96.8833 396.903C94.7189 396.995 92.5876 396.348 90.8395 395.068Z" fill="#FFB6B6"/>
<path d="M86.3954 378.074L63.0433 325.591L62.8094 284.139L70.1705 261.749C71.1692 258.711 72.7667 255.904 74.8686 253.494C76.9705 251.085 79.5341 249.121 82.408 247.718C85.2819 246.316 88.4077 245.505 91.6007 245.331C94.7937 245.158 97.9891 245.626 100.998 246.709L101.16 246.767L101.228 246.925C101.5 247.56 107.674 262.832 89.3609 294.248L85.6754 315.744L98.6075 365.018L86.3954 378.074Z" fill="#3F3D56"/>
</g>
</g>
<defs>
<clipPath id="clip0_95_739">
<rect width="898" height="557" fill="white"/>
</clipPath>
</defs>
</svg>
