<svg width="766" height="537" viewBox="0 0 766 537" fill="none" xmlns="http://www.w3.org/2000/svg">
<g clip-path="url(#clip0_95_393)">
<mask id="mask0_95_393" style="mask-type:luminance" maskUnits="userSpaceOnUse" x="0" y="0" width="766" height="537">
<path d="M765.839 0H0V536.777H765.839V0Z" fill="white"/>
</mask>
<g mask="url(#mask0_95_393)">
<path d="M758.667 349.55H228.173C226.271 349.548 224.448 348.792 223.104 347.448C221.759 346.103 221.003 344.28 221.001 342.378V13.8083H765.839V342.378C765.837 344.28 765.081 346.103 763.736 347.448C762.392 348.792 760.569 349.548 758.667 349.55Z" fill="#E6E6E6"/>
<path d="M743.112 329.017H243.728C241.806 329.015 239.963 328.251 238.604 326.891C237.245 325.532 236.48 323.689 236.478 321.767V51.1779C236.48 49.2558 237.245 47.413 238.604 46.0538C239.963 44.6947 241.806 43.9301 243.728 43.9279H743.112C745.034 43.93 746.877 44.6945 748.236 46.0537C749.595 47.4129 750.36 49.2557 750.362 51.1779V321.767C750.36 323.689 749.595 325.532 748.236 326.892C746.877 328.251 745.034 329.015 743.112 329.017Z" fill="white"/>
<path d="M765.607 23.9545H220.769V7.17197C220.771 5.27048 221.527 3.44749 222.872 2.10294C224.216 0.758384 226.039 0.00208695 227.941 -3.05176e-05H758.435C760.336 0.00208695 762.159 0.758384 763.504 2.10294C764.849 3.44749 765.605 5.27048 765.607 7.17197V23.9545Z" fill="#9333EA"/>
<path d="M238.365 16.5207C240.73 16.5207 242.648 14.6029 242.648 12.2372C242.648 9.87158 240.73 7.95383 238.365 7.95383C235.999 7.95383 234.081 9.87158 234.081 12.2372C234.081 14.6029 235.999 16.5207 238.365 16.5207Z" fill="white"/>
<path d="M254.623 16.5207C256.989 16.5207 258.907 14.6029 258.907 12.2372C258.907 9.87158 256.989 7.95383 254.623 7.95383C252.258 7.95383 250.34 9.87158 250.34 12.2372C250.34 14.6029 252.258 16.5207 254.623 16.5207Z" fill="white"/>
<path d="M270.882 16.5207C273.248 16.5207 275.166 14.6029 275.166 12.2372C275.166 9.87158 273.248 7.95383 270.882 7.95383C268.517 7.95383 266.599 9.87158 266.599 12.2372C266.599 14.6029 268.517 16.5207 270.882 16.5207Z" fill="white"/>
<path d="M339.273 92.449H287.803V115.231H339.273V92.449Z" fill="#E6E6E6"/>
<path d="M442.212 139.7H390.742V162.481H442.212V139.7Z" fill="#E6E6E6"/>
<path d="M339.273 210.576H287.803V233.357H339.273V210.576Z" fill="#9333EA"/>
<path d="M442.212 257.826H390.742V280.608H442.212V257.826Z" fill="#F7931D"/>
<path d="M698.716 281.452H647.246V304.233H698.716V281.452Z" fill="#F7931D"/>
<path d="M647.246 186.95H595.776V209.732H647.246V186.95Z" fill="#E6E6E6"/>
<path d="M545.151 186.95H442.212V209.732H545.151V186.95Z" fill="#9333EA"/>
<path d="M545.151 67.9799H442.212V90.7615H545.151V67.9799Z" fill="#9333EA"/>
<path d="M236.334 43.5108V329.546H751.029V43.5108H236.334ZM749.341 67.2066H699.728V45.1983H749.341V67.2066ZM443.224 233.076V211.068H544.138V233.076H443.224ZM544.138 234.763V256.772H443.224V234.763H544.138ZM544.138 139.981V161.989H443.224V139.981H544.138ZM443.224 138.294V116.285H544.138V138.294H443.224ZM443.224 185.685V163.676H544.138V185.685H443.224ZM544.138 187.372V209.381H443.224V187.372H544.138ZM441.537 161.989H391.924V139.981H441.537V161.989ZM441.537 163.676V185.685H391.924V163.676H441.537ZM441.537 187.372V209.381H391.924V187.372H441.537ZM441.537 211.068V233.076H391.924V211.068H441.537ZM545.826 211.068H595.439V233.076H545.826V211.068ZM545.826 209.381V187.372H595.439V209.381H545.826ZM545.826 185.685V163.676H595.439V185.685H545.826ZM545.826 161.989V139.981H595.439V161.989H545.826ZM545.826 138.294V116.285H595.439V138.294H545.826ZM545.826 114.598V92.5895H595.439V114.598H545.826ZM544.138 114.598H443.224V92.5895H544.138V114.598ZM441.537 114.598H391.924V92.5895H441.537V114.598ZM441.537 116.285V138.294H391.924V116.285H441.537ZM390.236 138.294H340.622V116.285H390.236V138.294ZM390.236 139.981V161.989H340.622V139.981H390.236ZM390.236 163.676V185.685H340.622V163.676H390.236ZM390.236 187.372V209.381H340.622V187.372H390.236ZM390.236 211.068V233.076H340.622V211.068H390.236ZM390.236 234.763V256.772H340.622V234.763H390.236ZM391.924 234.763H441.537V256.772H391.924V234.763ZM441.537 258.459V280.467H391.924V258.459H441.537ZM443.224 258.459H544.138V280.467H443.224V258.459ZM545.826 258.459H595.439V280.467H545.826V258.459ZM545.826 256.772V234.763H595.439V256.772H545.826ZM597.126 234.763H646.74V256.772H597.126V234.763ZM597.126 233.076V211.068H646.74V233.076H597.126ZM597.126 209.381V187.372H646.74V209.381H597.126ZM597.126 185.685V163.676H646.74V185.685H597.126ZM597.126 161.989V139.981H646.74V161.989H597.126ZM597.126 138.294V116.285H646.74V138.294H597.126ZM597.126 114.598V92.5895H646.74V114.598H597.126ZM597.126 90.902V68.8941H646.74V90.902H597.126ZM595.439 90.902H545.826V68.8941H595.439V90.902ZM544.138 90.902H443.224V68.8941H544.138V90.902ZM441.537 90.902H391.924V68.8941H441.537V90.902ZM390.236 90.902H340.622V68.8941H390.236V90.902ZM390.236 92.5895V114.598H340.622V92.5895H390.236ZM338.935 114.598H289.322V92.5895H338.935V114.598ZM338.935 116.285V138.294H289.322V116.285H338.935ZM338.935 139.981V161.989H289.322V139.981H338.935ZM338.935 163.676V185.685H289.322V163.676H338.935ZM338.935 187.372V209.381H289.322V187.372H338.935ZM338.935 211.068V233.076H289.322V211.068H338.935ZM338.935 234.763V256.772H289.322V234.763H338.935ZM338.935 258.459V280.467H289.322V258.459H338.935ZM340.622 258.459H390.236V280.467H340.622V258.459ZM390.236 282.155V304.163H340.622V282.155H390.236ZM391.924 282.155H441.537V304.163H391.924V282.155ZM443.224 282.155H544.138V304.163H443.224V282.155ZM545.826 282.155H595.439V304.163H545.826V282.155ZM597.126 282.155H646.74V304.163H597.126V282.155ZM597.126 280.467V258.459H646.74V280.467H597.126ZM648.428 258.459H698.041V280.467H648.428V258.459ZM648.428 256.772V234.763H698.041V256.772H648.428ZM648.428 233.076V211.068H698.041V233.076H648.428ZM648.428 209.381V187.372H698.041V209.381H648.428ZM648.428 185.685V163.676H698.041V185.685H648.428ZM648.428 161.989V139.981H698.041V161.989H648.428ZM648.428 138.294V116.285H698.041V138.294H648.428ZM648.428 114.598V92.5895H698.041V114.598H648.428ZM648.428 90.902V68.8941H698.041V90.902H648.428ZM648.428 67.2066V45.1983H698.041V67.2066H648.428ZM646.74 67.2066H597.126V45.1983H646.74V67.2066ZM595.439 67.2066H545.826V45.1983H595.439V67.2066ZM544.138 67.2066H443.224V45.1983H544.138V67.2066ZM441.537 67.2066H391.924V45.1983H441.537V67.2066ZM390.236 67.2066H340.622V45.1983H390.236V67.2066ZM338.935 67.2066H289.322V45.1983H338.935V67.2066ZM338.935 68.8941V90.902H289.322V68.8941H338.935ZM287.634 90.902H238.021V68.8941H287.634V90.902ZM287.634 92.5895V114.598H238.021V92.5895H287.634ZM287.634 116.285V138.294H238.021V116.285H287.634ZM287.634 139.981V161.989H238.021V139.981H287.634ZM287.634 163.676V185.685H238.021V163.676H287.634ZM287.634 187.372V209.381H238.021V187.372H287.634ZM287.634 211.068V233.076H238.021V211.068H287.634ZM287.634 234.763V256.772H238.021V234.763H287.634ZM287.634 258.459V280.467H238.021V258.459H287.634ZM287.634 282.155V304.163H238.021V282.155H287.634ZM289.322 282.155H338.935V304.163H289.322V282.155ZM338.935 305.851V327.859H289.322V305.851H338.935ZM340.622 305.851H390.236V327.859H340.622V305.851ZM391.924 305.851H441.537V327.859H391.924V305.851ZM443.224 305.851H544.138V327.859H443.224V305.851ZM545.826 305.851H595.439V327.859H545.826V305.851ZM597.126 305.851H646.74V327.859H597.126V305.851ZM648.428 305.851H698.041V327.859H648.428V305.851ZM648.428 304.163V282.155H698.041V304.163H648.428ZM699.728 282.155H749.341V304.163H699.728V282.155ZM699.728 280.467V258.459H749.341V280.467H699.728ZM699.728 256.772V234.763H749.341V256.772H699.728ZM699.728 233.076V211.068H749.341V233.076H699.728ZM699.728 209.381V187.372H749.341V209.381H699.728ZM699.728 185.685V163.676H749.341V185.685H699.728ZM699.728 161.989V139.981H749.341V161.989H699.728ZM699.728 138.294V116.285H749.341V138.294H699.728ZM699.728 114.598V92.5895H749.341V114.598H699.728ZM699.728 90.902V68.8941H749.341V90.902H699.728ZM287.634 45.1983V67.2066H238.021V45.1983H287.634ZM238.021 305.851H287.634V327.859H238.021V305.851ZM699.728 327.859V305.851H749.341V327.859H699.728Z" fill="#E6E6E6"/>
<path d="M96.2258 198.492C96.2258 198.492 70.1877 192.492 55.8667 203.492C41.5457 214.492 74.0934 239.492 74.0934 239.492L96.2258 198.492Z" fill="#F7931D"/>
<path d="M123.153 341.975C122.631 340.601 122.417 339.129 122.526 337.663C122.635 336.197 123.064 334.772 123.783 333.49C124.502 332.208 125.493 331.098 126.687 330.241C127.881 329.383 129.248 328.797 130.693 328.525L135.955 293.18L149.783 305.574L142.666 337.238C142.962 339.696 142.347 342.176 140.936 344.21C139.526 346.244 137.419 347.69 135.013 348.274C132.608 348.858 130.072 348.539 127.886 347.378C125.7 346.217 124.016 344.295 123.153 341.975Z" fill="#FFB8B8"/>
<path d="M68.648 525.464L80.881 524.652L83.571 477.082L65.517 478.28L68.648 525.464Z" fill="#FFB8B8"/>
<path d="M104.776 535.738H66.2455V520.851H89.8893C93.8376 520.851 97.6241 522.419 100.416 525.211C103.208 528.003 104.776 531.79 104.776 535.738Z" fill="#2F2E41"/>
<path d="M89.789 508.53L101.29 512.775L123.139 470.433L106.164 464.168L89.789 508.53Z" fill="#FFB8B8"/>
<path d="M119.529 531.642L83.3825 518.299L88.5377 504.334L110.719 512.521C114.423 513.889 117.432 516.671 119.084 520.257C120.736 523.843 120.896 527.938 119.529 531.642Z" fill="#2F2E41"/>
<path d="M123.231 325.779C123.231 325.779 135.619 332.45 131.808 359.133L127.996 460.148L106.936 506.198L88.8298 501.433L100.359 463.96L85.112 398.205L83.112 517.633L65.9586 520.492L41.2755 321.968L72.7234 307.673L123.231 325.779Z" fill="#2F2E41"/>
<path d="M78.9502 191.155C92.5149 191.155 103.511 180.159 103.511 166.594C103.511 153.03 92.5149 142.033 78.9502 142.033C65.3856 142.033 54.3892 153.03 54.3892 166.594C54.3892 180.159 65.3856 191.155 78.9502 191.155Z" fill="#FFB8B8"/>
<path d="M93.2123 193.793L80.8237 213.805L62.7173 195.699L28.8676 219.394C27.68 220.223 26.8086 221.43 26.3957 222.818C25.9828 224.207 26.0528 225.694 26.5943 227.037C31.8011 239.912 45.1349 277.97 41.2754 321.968C41.2754 321.968 67.0056 315.297 93.6888 322.921C120.372 330.544 127.043 327.685 127.043 327.685C127.043 327.685 120.372 279.084 124.184 268.601C127.346 259.906 133.786 230.884 135.89 221.24C136.089 220.329 135.989 219.379 135.606 218.529C135.223 217.679 134.577 216.974 133.763 216.52L93.2123 193.793Z" fill="#9333EA"/>
<path d="M132.782 216.635C133.829 216.486 134.896 216.723 135.782 217.302C136.667 217.882 137.312 218.764 137.594 219.784L153.726 278.037L149.914 313.297L131.808 310.438L133.713 285.661L120.372 254.213L129.179 219.865C129.393 219.031 129.849 218.279 130.491 217.704C131.132 217.129 131.929 216.757 132.782 216.635Z" fill="#9333EA"/>
<path d="M59.9579 132.117C61.5957 129.337 63.9699 127.063 66.8183 125.548C69.6667 124.032 72.8785 123.334 76.0991 123.529C79.4679 123.951 82.7554 124.871 85.854 126.259L101.91 132.522C106.065 134.143 110.615 136.128 112.418 140.207C114.091 143.993 112.843 148.365 111.579 152.307L105.572 171.042C104.906 166.802 103.765 162.65 102.168 158.666C100.423 154.749 97.6629 151.137 93.8474 149.179C89.6768 147.04 84.7612 147.084 80.0792 147.309C73.4484 147.629 66.2388 148.472 61.5276 153.149C59.0267 155.805 57.3311 159.117 56.6381 162.698C55.956 166.261 55.6127 169.88 55.6128 173.508C52.8937 168.834 50.6032 163.923 48.7693 158.836C47.2609 155.048 46.4013 151.033 46.2266 146.96C46.069 142.852 47.4321 138.83 50.055 135.664C52.7675 132.632 57.1874 130.996 61.0744 132.196" fill="#2F2E41"/>
<path d="M46.2987 355.975C46.8204 354.601 47.0343 353.129 46.9255 351.663C46.8167 350.197 46.3877 348.772 45.6689 347.49C44.95 346.208 43.9588 345.098 42.7649 344.241C41.571 343.383 40.2036 342.797 38.7589 342.525L33.4967 307.18L19.6688 319.574L26.7858 351.238C26.4894 353.696 27.1048 356.176 28.5152 358.21C29.9256 360.244 32.0331 361.69 34.4383 362.274C36.8435 362.858 39.3794 362.539 41.5653 361.378C43.7513 360.217 45.4354 358.295 46.2987 355.975Z" fill="#FFB8B8"/>
<path d="M29.215 219.057C27.7718 219.297 26.4543 220.024 25.481 221.117C24.5077 222.209 23.9372 223.601 23.8642 225.062L18.4042 334.262H38.4165L45.0873 276.131L36.5979 224.345C36.4614 223.513 36.162 222.715 35.7169 221.999C35.2717 221.282 34.6895 220.66 34.0037 220.169C33.3179 219.678 32.5419 219.327 31.7202 219.136C30.8984 218.945 30.0471 218.918 29.215 219.057Z" fill="#9333EA"/>
<path d="M171.738 536.777H0V534.671H172.12L171.738 536.777Z" fill="#CCCCCC"/>
</g>
</g>
<defs>
<clipPath id="clip0_95_393">
<rect width="766" height="537" fill="white"/>
</clipPath>
</defs>
</svg>
