<svg width="88" height="72" viewBox="0 0 88 72" fill="none" xmlns="http://www.w3.org/2000/svg">
<path d="M77 36C77 22.745 65.255 11 52 11L25.175 12C19.47 18.37 15 26.78 15 36C15 45.22 19.47 53.63 25.175 60L52 61C65.255 61 77 49.255 77 36ZM39 36C39 28.82 44.82 23 52 23C59.18 23 65 28.82 65 36C65 43.18 59.18 49 52 49C44.82 49 39 43.18 39 36Z" fill="#0060D9"/>
<path d="M16 36C16 45.22 19.47 53.63 25.175 60H24C10.745 60 0 49.255 0 36C0 22.745 10.745 12 24 12H25.175C19.47 18.37 16 26.78 16 36ZM52 0C41.34 0 31.765 4.635 25.175 12H52C65.255 12 76 22.745 76 36C76 49.255 65.255 60 52 60H25.175C31.765 67.365 41.34 72 52 72C71.88 72 88 55.88 88 36C88 16.12 71.88 0 52 0Z" fill="#4285F4"/>
</svg>
