<svg width="84" height="84" viewBox="0 0 84 84" fill="none" xmlns="http://www.w3.org/2000/svg">
<path d="M42 83.25C64.7817 83.25 83.25 64.7817 83.25 42C83.25 19.2183 64.7817 0.75 42 0.75C19.2183 0.75 0.75 19.2183 0.75 42C0.75 64.7817 19.2183 83.25 42 83.25Z" fill="#4285F4"/>
<path d="M81.3001 29.4323C80.1564 25.8511 78.5392 22.4901 76.5235 19.4105L75.6751 20.3714L50.5923 45.4495L37.0548 31.9073C35.0392 29.8917 31.7767 29.8917 29.761 31.9073L3.88135 57.787C5.25947 61.1151 7.05947 64.2136 9.21572 67.0355L33.4032 42.848L46.9454 56.3855C48.961 58.4011 52.2235 58.4011 54.2392 56.3855L80.686 29.9386L81.3001 29.4323Z" fill="#1967D2"/>
<path d="M29.7564 29.7569L3.31421 56.2038C4.57515 59.6303 6.25327 62.8413 8.32983 65.7709L33.408 40.6928L46.9455 54.2303C48.9611 56.2459 52.2236 56.2459 54.2392 54.2303L80.6861 27.7834C79.4251 24.3569 77.747 21.1459 75.6705 18.2162L50.5923 43.2991L37.0548 29.7569C35.0392 27.7459 31.772 27.7459 29.7564 29.7569Z" fill="white"/>
<path d="M8.32983 65.7757L33.408 40.6976L26.1142 33.4085L3.31421 56.2085C4.57515 59.6351 6.25327 62.846 8.32983 65.7757Z" fill="#D2E3FC"/>
</svg>
