<svg width="800" height="200" viewBox="0 0 800 200" fill="none" xmlns="http://www.w3.org/2000/svg">
<path d="M59.9052 0.00748821C58.3272 0.0966132 56.9703 0.981539 56.9703 2.79879V61.962C56.9703 61.962 57.162 71.5208 64.8423 81.0798C72.5224 90.6388 103.579 130.137 103.579 130.137V52.7365L64.1689 1.99338C63.2816 0.625565 61.4831 -0.0815242 59.9052 0.00748821ZM152.853 0.106866C151.463 0.154114 149.849 0.980914 148.505 2.62435L109.418 52.763V130.137L150.14 78.0128C150.14 78.0128 156.06 69.5366 156.06 59.6168V3.70535C156.06 1.27229 154.641 0.0460777 152.853 0.106866ZM3.60138 72.0746C0.00933551 72.0746 -1.51001 77.0567 1.94384 80.9197C1.94384 80.9197 67.2907 164.94 80.4155 181.408C93.5402 197.877 103.579 197.385 103.579 197.385V140.847C103.579 140.847 78.7576 108.214 64.9421 90.5257C51.1266 72.8372 30.6805 72.0746 30.6805 72.0746H3.60138ZM182.316 72.0746C182.316 72.0746 161.87 72.8372 148.054 90.5257C134.239 108.214 109.418 140.847 109.418 140.847V197.385C109.418 197.385 119.455 197.877 132.579 181.408C145.704 164.94 211.053 80.9197 211.053 80.9197C214.507 77.0567 212.987 72.0746 209.395 72.0746H182.316ZM766.022 107.647C766.022 107.647 756.33 107.647 749.739 116.206L728.861 142.417V171.836C728.861 171.836 732.581 173.442 736.167 169.804L781.486 112.09C783.227 109.967 782.642 107.647 780.216 107.647H766.022Z" fill="#E00500"/>
<path d="M239.686 72.0748L278.146 197.385H305.977L344.1 72.0748H319.64L291.977 167.417L264.144 72.0748H239.686ZM354.051 72.0748V197.385H375.812V155.688H399.258C399.258 155.688 413.435 155.687 425.229 142.467C430.572 136.479 434.512 128.629 434.512 114.913C434.512 80.4695 404.15 72.0748 397.403 72.0748H375.812H358.774H354.051ZM444.971 72.0748V197.385H459.309H467.743H494.393C494.393 197.385 509.711 197.385 518.942 186.694C523.728 181.151 528.468 173.202 528.468 160.714C528.131 157.549 528.636 139.117 513.623 132.415C513.623 132.415 530.66 118.655 522.226 95.3653C513.792 72.076 491.02 72.0748 491.02 72.0748H467.743H458.297H444.971ZM708.642 72.0748V197.385H728.861V72.0748H708.642ZM789.013 72.2808C786.099 72.2812 783.305 73.5592 781.245 75.8338C779.185 78.1084 778.027 81.1932 778.027 84.4097C778.027 87.6262 779.185 90.7111 781.245 92.9856C783.305 95.2602 786.099 96.5382 789.013 96.5386C790.456 96.5386 791.884 96.2249 793.217 95.6154C794.551 95.0059 795.762 94.1125 796.782 92.9862C797.802 91.86 798.612 90.5229 799.164 89.0513C799.716 87.5797 800 86.0025 800 84.4097C800 82.8169 799.716 81.2397 799.164 79.7681C798.612 78.2965 797.802 76.9594 796.782 75.8332C795.762 74.7069 794.551 73.8135 793.217 73.204C791.884 72.5945 790.456 72.2808 789.013 72.2808ZM788.947 75.0206C790.055 75.0206 791.153 75.2616 792.176 75.7297C793.2 76.1979 794.131 76.8841 794.914 77.7492C795.698 78.6143 796.319 79.6413 796.744 80.7716C797.168 81.9019 797.386 83.1134 797.386 84.3368C797.386 85.5602 797.168 86.7717 796.744 87.902C796.32 89.0323 795.698 90.0593 794.914 90.9244C794.131 91.7895 793.2 92.4757 792.176 92.9439C791.153 93.4121 790.055 93.6531 788.947 93.653C786.709 93.6526 784.563 92.6708 782.981 90.9237C781.398 89.1766 780.51 86.8073 780.51 84.3368C780.51 81.8663 781.398 79.497 782.981 77.7499C784.563 76.0028 786.709 75.0211 788.947 75.0206ZM784.652 78.3062V90.8333H787.299V86.1538H788.063L790.857 90.8333H793.803L790.82 86.1538C790.82 86.1538 793.489 86.1548 793.444 82.4167C793.395 78.3071 789.812 78.3062 789.812 78.3062H784.652ZM787.299 81.0299H789.34C789.34 81.0299 790.574 81.0541 790.597 82.2922C790.619 83.5301 789.475 83.5314 789.475 83.5314H787.299V81.0299ZM375.811 95.3651H397.908C397.908 95.3651 412.584 96.1013 412.584 114.542C412.584 132.973 397.403 132.973 397.403 132.973H375.811V95.3651ZM467.743 95.3651H490.007C490.007 95.3651 501.479 96.1092 501.479 109.7C501.479 123.292 489.671 123.291 489.671 123.291H467.743V95.3651ZM671.692 104.923C657.718 104.923 650.274 112.122 646.404 118.565V108.024H626.543V197.385H646.404V147.618C646.404 147.618 646.751 126.08 664.764 125.952C682.777 125.825 680.928 148.892 680.928 148.892V197.385H701.021V139.717C701.021 139.717 701.367 123.073 690.529 112.954C686.264 108.972 679.975 104.923 671.692 104.923ZM571.752 105.177C561.447 105.178 551.564 110.173 544.277 119.064C536.99 127.955 532.896 140.015 532.896 152.589C532.896 165.163 536.99 177.222 544.277 186.113C551.564 195.005 561.447 200 571.752 200C581.547 199.967 590.971 195.422 598.136 187.274V197.385H618.922V108.024H598.136V117.904C590.971 109.755 581.547 105.21 571.752 105.177ZM575.735 126.295C578.864 126.295 581.962 126.97 584.852 128.282C587.742 129.594 590.368 131.517 592.58 133.941C594.793 136.365 596.547 139.242 597.744 142.409C598.941 145.576 599.557 148.971 599.557 152.398C599.557 159.321 597.047 165.96 592.58 170.855C588.112 175.75 582.053 178.5 575.735 178.5C569.418 178.499 563.359 175.749 558.892 170.854C554.425 165.96 551.915 159.321 551.915 152.398C551.915 145.476 554.424 138.837 558.891 133.941C563.359 129.046 569.418 126.296 575.735 126.295ZM467.743 144.144H495.574C495.574 144.144 506.033 143.957 506.033 159.224C506.033 174.491 493.718 174.491 493.718 174.491H467.743V144.144ZM751.024 154.66C750.538 154.639 750.004 154.827 749.447 155.362L742.759 163.493C742.759 163.493 738.886 169.257 745.473 178.15L759.721 197.385H782.79L753.517 156.646C753.517 156.646 752.482 154.72 751.024 154.66Z" fill="#00B74F"/>
</svg>
